<svg width="40" height="32" viewBox="0 0 40 32" fill="none" xmlns="http://www.w3.org/2000/svg">
<g clip-path="url(#clip0_3345_2452)">
<path d="M37.1464 9.66705C36.9847 8.42088 36.9619 6.27453 38.0913 5.55381C38.1114 5.5406 38.1265 5.52151 38.1442 5.50512C39.0675 5.20245 39.7065 4.77768 39.2049 4.2061L25.5841 0L3.52878 3.14259C3.52878 3.14259 1.00317 3.51255 1.22879 7.53391C1.35127 9.7226 2.02108 10.7975 2.60685 11.3265L0.797013 11.8855C0.294685 12.4571 0.933577 12.8819 1.85706 13.1841C1.87461 13.201 1.88941 13.22 1.90994 13.2332C3.03863 13.9545 3.0169 16.1006 2.85455 17.347C-1.20024 18.527 0.255291 18.9115 0.255291 18.9115L1.14475 19.1321C0.519109 19.7115 -0.102235 20.8103 0.0141549 22.8941C0.239892 26.9148 2.31438 27.1922 2.31438 27.1922L16.7472 32L38.5319 26.5923C38.5319 26.5923 39.9879 26.2071 35.932 25.027C35.769 23.7826 35.7463 21.6367 36.8776 20.9135C36.8984 20.9007 36.9135 20.8812 36.9304 20.8651C37.8538 20.5624 38.4923 20.138 37.9905 19.5664L37.0436 19.2734C37.6751 18.8832 38.6237 17.8632 38.7723 15.2138C38.8748 13.3914 38.411 12.3241 37.874 11.6957L39.7456 11.2316C39.7457 11.2323 41.2017 10.8472 37.1464 9.66705ZM18.9249 9.61555L22.5882 8.84394L34.9683 6.2366L36.8128 5.8478C36.2234 6.95328 36.2481 8.46615 36.3457 9.43852C36.367 9.65849 36.3916 9.85938 36.4155 10.0121L34.3966 10.5265L18.7709 14.5103L18.9249 9.61555ZM3.18856 13.5284L5.03278 13.9172L16.9221 16.422L17.9608 16.64L21.0756 17.2961L21.2293 22.191L5.16934 18.0961L3.58608 17.6929C3.60936 17.54 3.63395 17.3393 3.65627 17.1188C3.7532 16.1471 3.77839 14.6339 3.18856 13.5284ZM2.47208 7.34037C2.44975 6.27073 2.63574 5.49717 3.01165 5.10396C3.25087 4.85292 3.5332 4.80068 3.72682 4.80068C3.82912 4.80068 3.90278 4.81524 3.90779 4.81524L13.4108 7.99036L18.152 9.57456L17.9965 14.5036L4.69554 10.6819L3.99362 10.4804C3.96784 10.4729 3.93286 10.4678 3.90588 10.4666C3.85109 10.4625 2.53606 10.3385 2.47208 7.34037ZM16.7816 29.8645L2.77911 25.8412C2.7532 25.8335 2.71858 25.8284 2.69161 25.827C2.63586 25.8232 1.32023 25.6993 1.2566 22.7019C1.23392 21.6309 1.42086 20.8581 1.79606 20.4645C2.03588 20.2135 2.31832 20.1613 2.51159 20.1613C2.61413 20.1613 2.68755 20.1753 2.69292 20.1753L16.9362 24.9354L16.7816 29.8645ZM35.1301 24.7987C35.1522 25.0194 35.1767 25.22 35.2006 25.3729L17.5556 29.8715L17.7099 24.9766L21.4822 24.1818L22.0393 24.3199L24.1274 23.6244L33.7527 21.5973L35.5979 21.2083C35.0079 22.3136 35.0324 23.8271 35.1301 24.7987ZM36.102 18.1464C36.0699 18.1472 36.0378 18.1516 36.0076 18.1613L34.6768 18.5432L22.0054 22.1845L21.8505 17.2555L26.0078 15.8659L36.0743 12.5013C36.0756 12.5007 36.6039 12.3805 36.9916 12.7846C37.3669 13.1778 37.5531 13.9513 37.5312 15.021C37.4655 18.0181 36.1499 18.1426 36.102 18.1464Z" fill="#EE363A"/>
</g>
<defs>
<clipPath id="clip0_3345_2452">
<rect width="40" height="32" fill="white"/>
</clipPath>
</defs>
</svg>
