<svg width="22" height="28" viewBox="0 0 22 28" fill="none" xmlns="http://www.w3.org/2000/svg">
<g clip-path="url(#clip0_2086_22508)">
<path d="M17.6667 5.33329H21.872C21.7783 5.193 21.6711 5.06216 21.552 4.94263L17.3907 0.781294C17.2708 0.662214 17.14 0.554633 17 0.459961V4.66663C17 4.84344 17.0702 5.01301 17.1953 5.13803C17.3203 5.26306 17.4899 5.33329 17.6667 5.33329Z" fill="#1CA74E"/>
<path d="M17.4706 6.66667C16.9558 6.66667 16.462 6.45595 16.098 6.08088C15.7339 5.70581 15.5294 5.1971 15.5294 4.66667V0.016C15.4764 0.016 15.4259 0 15.3722 0H2.58824C1.90179 0 1.24346 0.280951 0.758076 0.781048C0.272688 1.28115 0 1.95942 0 2.66667V25.3333C0 26.0406 0.272688 26.7189 0.758076 27.219C1.24346 27.719 1.90179 28 2.58824 28H19.4118C20.0982 28 20.7565 27.719 21.2419 27.219C21.7273 26.7189 22 26.0406 22 25.3333V6.828C22 6.774 21.9877 6.72067 21.9845 6.66667H17.4706ZM4.52941 4.66667H11.6471C11.8187 4.66667 11.9833 4.7369 12.1046 4.86193C12.2259 4.98695 12.2941 5.15652 12.2941 5.33333C12.2941 5.51014 12.2259 5.67971 12.1046 5.80474C11.9833 5.92976 11.8187 6 11.6471 6H4.52941C4.3578 6 4.19322 5.92976 4.07187 5.80474C3.95053 5.67971 3.88235 5.51014 3.88235 5.33333C3.88235 5.15652 3.95053 4.98695 4.07187 4.86193C4.19322 4.7369 4.3578 4.66667 4.52941 4.66667ZM4.52941 8H11.6471C11.8187 8 11.9833 8.07024 12.1046 8.19526C12.2259 8.32029 12.2941 8.48986 12.2941 8.66667C12.2941 8.84348 12.2259 9.01305 12.1046 9.13807C11.9833 9.2631 11.8187 9.33333 11.6471 9.33333H4.52941C4.3578 9.33333 4.19322 9.2631 4.07187 9.13807C3.95053 9.01305 3.88235 8.84348 3.88235 8.66667C3.88235 8.48986 3.95053 8.32029 4.07187 8.19526C4.19322 8.07024 4.3578 8 4.52941 8ZM17.4706 23.3333H12.2941C12.1225 23.3333 11.9579 23.2631 11.8366 23.1381C11.7152 23.013 11.6471 22.8435 11.6471 22.6667C11.6471 22.4899 11.7152 22.3203 11.8366 22.1953C11.9579 22.0702 12.1225 22 12.2941 22H17.4706C17.6422 22 17.8068 22.0702 17.9281 22.1953C18.0495 22.3203 18.1176 22.4899 18.1176 22.6667C18.1176 22.8435 18.0495 23.013 17.9281 23.1381C17.8068 23.2631 17.6422 23.3333 17.4706 23.3333ZM17.4706 19.3333H4.52941C4.3578 19.3333 4.19322 19.2631 4.07187 19.1381C3.95053 19.013 3.88235 18.8435 3.88235 18.6667C3.88235 18.4899 3.95053 18.3203 4.07187 18.1953C4.19322 18.0702 4.3578 18 4.52941 18H17.4706C17.6422 18 17.8068 18.0702 17.9281 18.1953C18.0495 18.3203 18.1176 18.4899 18.1176 18.6667C18.1176 18.8435 18.0495 19.013 17.9281 19.1381C17.8068 19.2631 17.6422 19.3333 17.4706 19.3333ZM17.4706 16H4.52941C4.3578 16 4.19322 15.9298 4.07187 15.8047C3.95053 15.6797 3.88235 15.5101 3.88235 15.3333C3.88235 15.1565 3.95053 14.987 4.07187 14.8619C4.19322 14.7369 4.3578 14.6667 4.52941 14.6667H17.4706C17.6422 14.6667 17.8068 14.7369 17.9281 14.8619C18.0495 14.987 18.1176 15.1565 18.1176 15.3333C18.1176 15.5101 18.0495 15.6797 17.9281 15.8047C17.8068 15.9298 17.6422 16 17.4706 16ZM17.4706 12.6667H4.52941C4.3578 12.6667 4.19322 12.5964 4.07187 12.4714C3.95053 12.3464 3.88235 12.1768 3.88235 12C3.88235 11.8232 3.95053 11.6536 4.07187 11.5286C4.19322 11.4036 4.3578 11.3333 4.52941 11.3333H17.4706C17.6422 11.3333 17.8068 11.4036 17.9281 11.5286C18.0495 11.6536 18.1176 11.8232 18.1176 12C18.1176 12.1768 18.0495 12.3464 17.9281 12.4714C17.8068 12.5964 17.6422 12.6667 17.4706 12.6667Z" fill="#1CA74E"/>
</g>
<defs>
<clipPath id="clip0_2086_22508">
<rect width="22" height="28" fill="white"/>
</clipPath>
</defs>
</svg>
