<svg width="24" height="25" viewBox="0 0 24 25" fill="none" xmlns="http://www.w3.org/2000/svg">
<g clip-path="url(#clip0_3101_8518)">
<mask id="mask0_3101_8518" style="mask-type:luminance" maskUnits="userSpaceOnUse" x="0" y="0" width="24" height="25">
<path d="M24 0.5H0V24.5H24V0.5Z" fill="white"/>
<path d="M5.85937 9.40625C5.34159 9.40625 4.92188 9.82597 4.92188 10.3438C4.92188 10.8615 5.34159 11.2812 5.85937 11.2812C6.37716 11.2812 6.79687 10.8615 6.79687 10.3438C6.79687 9.82597 6.37716 9.40625 5.85937 9.40625Z" fill="white"/>
<path d="M9.9375 9.40625C9.41972 9.40625 9 9.82597 9 10.3438C9 10.8615 9.41972 11.2812 9.9375 11.2812C10.4553 11.2812 10.875 10.8615 10.875 10.3438C10.875 9.82597 10.4553 9.40625 9.9375 9.40625Z" fill="white"/>
<path d="M14.0156 9.40625C13.4978 9.40625 13.0781 9.82597 13.0781 10.3438C13.0781 10.8615 13.4978 11.2812 14.0156 11.2812C14.5334 11.2812 14.9531 10.8615 14.9531 10.3438C14.9531 9.82597 14.5334 9.40625 14.0156 9.40625Z" fill="white"/>
<path d="M18.0937 9.40625C17.576 9.40625 17.1562 9.82597 17.1562 10.3438C17.1562 10.8615 17.576 11.2812 18.0937 11.2812C18.6115 11.2812 19.0312 10.8615 19.0312 10.3438C19.0312 9.82597 18.6115 9.40625 18.0937 9.40625Z" fill="white"/>
<path d="M6.79687 14.4219C6.79687 13.9041 6.37716 13.4844 5.85937 13.4844C5.34159 13.4844 4.92188 13.9041 4.92188 14.4219C4.92188 14.9397 5.34159 15.3594 5.85937 15.3594C6.37716 15.3594 6.79687 14.9397 6.79687 14.4219Z" fill="white"/>
<path d="M6.79687 18.5C6.79687 17.9822 6.37716 17.5625 5.85937 17.5625C5.34159 17.5625 4.92188 17.9822 4.92188 18.5C4.92188 19.0178 5.34159 19.4375 5.85937 19.4375C6.37716 19.4375 6.79687 19.0178 6.79687 18.5Z" fill="white"/>
<path d="M10.875 14.4219C10.875 13.9041 10.4553 13.4844 9.9375 13.4844C9.41972 13.4844 9 13.9041 9 14.4219C9 14.9397 9.41972 15.3594 9.9375 15.3594C10.4553 15.3594 10.875 14.9397 10.875 14.4219Z" fill="white"/>
<path d="M10.875 18.5C10.875 17.9822 10.4553 17.5625 9.9375 17.5625C9.41972 17.5625 9 17.9822 9 18.5C9 19.0178 9.41972 19.4375 9.9375 19.4375C10.4553 19.4375 10.875 19.0178 10.875 18.5Z" fill="white"/>
<path d="M9.9375 9.40625C9.41972 9.40625 9 9.82597 9 10.3438C9 10.8615 9.41972 11.2812 9.9375 11.2812C10.4553 11.2812 10.875 10.8615 10.875 10.3438C10.875 9.82597 10.4553 9.40625 9.9375 9.40625Z" fill="white"/>
<path d="M10.875 14.4219C10.875 13.9041 10.4553 13.4844 9.9375 13.4844C9.41972 13.4844 9 13.9041 9 14.4219C9 14.9397 9.41972 15.3594 9.9375 15.3594C10.4553 15.3594 10.875 14.9397 10.875 14.4219Z" fill="white"/>
<path d="M10.875 18.5C10.875 17.9822 10.4553 17.5625 9.9375 17.5625C9.41972 17.5625 9 17.9822 9 18.5C9 19.0178 9.41972 19.4375 9.9375 19.4375C10.4553 19.4375 10.875 19.0178 10.875 18.5Z" fill="white"/>
<path d="M14.9531 14.4219C14.9531 13.9041 14.5334 13.4844 14.0156 13.4844C13.4978 13.4844 13.0781 13.9041 13.0781 14.4219C13.0781 14.9397 13.4978 15.3594 14.0156 15.3594C14.5334 15.3594 14.9531 14.9397 14.9531 14.4219Z" fill="white"/>
<path d="M19.0312 14.4219C19.0312 13.9041 18.6115 13.4844 18.0937 13.4844C17.576 13.4844 17.1562 13.9041 17.1562 14.4219C17.1562 14.9397 17.576 15.3594 18.0937 15.3594C18.6115 15.3594 19.0312 14.9397 19.0312 14.4219Z" fill="white"/>
</mask>
<g mask="url(#mask0_3101_8518)">
<mask id="mask1_3101_8518" style="mask-type:luminance" maskUnits="userSpaceOnUse" x="0" y="0" width="24" height="25">
<path d="M0 0.500002H24V24.5H0V0.500002Z" fill="white"/>
</mask>
<g mask="url(#mask1_3101_8518)">
<path d="M11.625 23.5625H3.75C2.1967 23.5625 0.9375 22.3033 0.9375 20.75V6.125C0.9375 4.5717 2.1967 3.3125 3.75 3.3125H20.25C21.8033 3.3125 23.0625 4.5717 23.0625 6.125V12.7812" stroke="#1CA74E" stroke-width="1.5" stroke-miterlimit="10" stroke-linecap="round" stroke-linejoin="round"/>
<path d="M5.85937 9.40625C5.34159 9.40625 4.92188 9.82597 4.92188 10.3438C4.92188 10.8615 5.34159 11.2812 5.85937 11.2812C6.37716 11.2812 6.79687 10.8615 6.79687 10.3438C6.79687 9.82597 6.37716 9.40625 5.85937 9.40625Z" fill="#1CA74E"/>
<path d="M9.9375 9.40625C9.41972 9.40625 9 9.82597 9 10.3438C9 10.8615 9.41972 11.2812 9.9375 11.2812C10.4553 11.2812 10.875 10.8615 10.875 10.3438C10.875 9.82597 10.4553 9.40625 9.9375 9.40625Z" fill="#1CA74E"/>
<path d="M14.0156 9.40625C13.4978 9.40625 13.0781 9.82597 13.0781 10.3438C13.0781 10.8615 13.4978 11.2812 14.0156 11.2812C14.5334 11.2812 14.9531 10.8615 14.9531 10.3438C14.9531 9.82597 14.5334 9.40625 14.0156 9.40625Z" fill="#1CA74E"/>
<path d="M18.0937 9.40625C17.576 9.40625 17.1562 9.82597 17.1562 10.3438C17.1562 10.8615 17.576 11.2812 18.0937 11.2812C18.6115 11.2812 19.0312 10.8615 19.0312 10.3438C19.0312 9.82597 18.6115 9.40625 18.0937 9.40625Z" fill="#1CA74E"/>
<path d="M6.79687 14.4219C6.79687 13.9041 6.37716 13.4844 5.85937 13.4844C5.34159 13.4844 4.92188 13.9041 4.92188 14.4219C4.92188 14.9397 5.34159 15.3594 5.85937 15.3594C6.37716 15.3594 6.79687 14.9397 6.79687 14.4219Z" fill="#1CA74E"/>
<path d="M6.79687 18.5C6.79687 17.9822 6.37716 17.5625 5.85937 17.5625C5.34159 17.5625 4.92188 17.9822 4.92188 18.5C4.92188 19.0178 5.34159 19.4375 5.85937 19.4375C6.37716 19.4375 6.79687 19.0178 6.79687 18.5Z" fill="#1CA74E"/>
<path d="M10.875 14.4219C10.875 13.9041 10.4553 13.4844 9.9375 13.4844C9.41972 13.4844 9 13.9041 9 14.4219C9 14.9397 9.41972 15.3594 9.9375 15.3594C10.4553 15.3594 10.875 14.9397 10.875 14.4219Z" fill="#1CA74E"/>
<path d="M10.875 18.5C10.875 17.9822 10.4553 17.5625 9.9375 17.5625C9.41972 17.5625 9 17.9822 9 18.5C9 19.0178 9.41972 19.4375 9.9375 19.4375C10.4553 19.4375 10.875 19.0178 10.875 18.5Z" fill="#1CA74E"/>
<path d="M9.9375 9.40625C9.41972 9.40625 9 9.82597 9 10.3438C9 10.8615 9.41972 11.2812 9.9375 11.2812C10.4553 11.2812 10.875 10.8615 10.875 10.3438C10.875 9.82597 10.4553 9.40625 9.9375 9.40625Z" fill="#1CA74E"/>
<path d="M10.875 14.4219C10.875 13.9041 10.4553 13.4844 9.9375 13.4844C9.41972 13.4844 9 13.9041 9 14.4219C9 14.9397 9.41972 15.3594 9.9375 15.3594C10.4553 15.3594 10.875 14.9397 10.875 14.4219Z" fill="#1CA74E"/>
<path d="M10.875 18.5C10.875 17.9822 10.4553 17.5625 9.9375 17.5625C9.41972 17.5625 9 17.9822 9 18.5C9 19.0178 9.41972 19.4375 9.9375 19.4375C10.4553 19.4375 10.875 19.0178 10.875 18.5Z" fill="#1CA74E"/>
<path d="M5.85938 1.4375V5.1875" stroke="#1CA74E" stroke-width="1.5" stroke-miterlimit="10" stroke-linecap="round" stroke-linejoin="round"/>
<path d="M18.0938 5.1875V1.4375" stroke="#1CA74E" stroke-width="1.5" stroke-miterlimit="10" stroke-linecap="round" stroke-linejoin="round"/>
<path d="M14.9531 14.4219C14.9531 13.9041 14.5334 13.4844 14.0156 13.4844C13.4978 13.4844 13.0781 13.9041 13.0781 14.4219C13.0781 14.9397 13.4978 15.3594 14.0156 15.3594C14.5334 15.3594 14.9531 14.9397 14.9531 14.4219Z" fill="#1CA74E"/>
<path d="M19.0312 14.4219C19.0312 13.9041 18.6115 13.4844 18.0937 13.4844C17.576 13.4844 17.1562 13.9041 17.1562 14.4219C17.1562 14.9397 17.576 15.3594 18.0937 15.3594C18.6115 15.3594 19.0312 14.9397 19.0312 14.4219Z" fill="#1CA74E"/>
<path d="M11.9531 1.4375V5.1875" stroke="#1CA74E" stroke-width="1.5" stroke-miterlimit="10" stroke-linecap="round" stroke-linejoin="round"/>
<path d="M13.2676 20.237L16.2592 23.1564C16.8837 23.7508 17.8828 23.6842 18.4228 23.0122L23.0626 16.5312" stroke="#1CA74E" stroke-width="1.5" stroke-miterlimit="10" stroke-linecap="round" stroke-linejoin="round"/>
</g>
</g>
</g>
<defs>
<clipPath id="clip0_3101_8518">
<rect width="24" height="24" fill="white" transform="translate(0 0.5)"/>
</clipPath>
</defs>
</svg>
