<svg width="40" height="40" viewBox="0 0 40 40" fill="none" xmlns="http://www.w3.org/2000/svg">
<path d="M23.2637 24.8754C23.2636 24.9575 23.2798 25.0388 23.3112 25.1146C23.3426 25.1905 23.3886 25.2594 23.4467 25.3174C23.5047 25.3755 23.5736 25.4215 23.6495 25.4529C23.7253 25.4843 23.8066 25.5005 23.8887 25.5004H30.6442C30.81 25.5004 30.9689 25.4346 31.0862 25.3174C31.2034 25.2002 31.2692 25.0412 31.2692 24.8754C31.2692 24.7096 31.2034 24.5507 31.0862 24.4334C30.9689 24.3162 30.81 24.2504 30.6442 24.2504H23.8887C23.8066 24.2503 23.7253 24.2665 23.6495 24.2979C23.5736 24.3293 23.5047 24.3753 23.4467 24.4334C23.3886 24.4914 23.3426 24.5603 23.3112 24.6362C23.2798 24.712 23.2636 24.7933 23.2637 24.8754Z" fill="#56BF7C"/>
<path d="M15.3437 8.79187C14.789 8.79915 14.2595 9.02461 13.8699 9.41944C13.4802 9.81426 13.2617 10.3467 13.2617 10.9014C13.2617 11.4561 13.4802 11.9886 13.8699 12.3834C14.2596 12.7782 14.7891 13.0036 15.3438 13.0109C15.8985 13.0036 16.428 12.7781 16.8176 12.3833C17.2073 11.9885 17.4258 11.4561 17.4258 10.9013C17.4258 10.3466 17.2073 9.8142 16.8176 9.41938C16.4279 9.02457 15.8984 8.79913 15.3437 8.79187Z" fill="#56BF7C"/>
<path d="M31.8763 36.2499H30.6263V35.6874C30.6169 35.1987 30.4144 34.7336 30.063 34.3939C29.7116 34.0541 29.2399 33.8675 28.7511 33.8747H25.0509L23.3008 31.6871C25.5307 31.0484 27.5224 29.7655 29.0261 27.9993H30.5825C30.7465 27.9967 30.9029 27.9297 31.018 27.8127C31.1331 27.6958 31.1975 27.5383 31.1975 27.3743C31.1975 27.2102 31.133 27.0528 31.018 26.9358C30.9029 26.8189 30.7465 26.7519 30.5825 26.7493H23.8258C23.6622 26.7525 23.5063 26.8197 23.3917 26.9366C23.2771 27.0535 23.2129 27.2106 23.2129 27.3743C23.2129 27.538 23.2771 27.6952 23.3917 27.812C23.5063 27.9289 23.6622 27.9962 23.8259 27.9993H24.3258C18.595 31.3378 11.0062 26.8974 11.1251 20.2487C11.1249 19.0632 11.3627 17.8898 11.8243 16.7979C12.2859 15.706 12.9621 14.7179 13.8126 13.8922C13.1753 13.5649 12.6603 13.0411 12.3438 12.3983C12.1849 12.089 12.0792 11.7552 12.0313 11.4108C10.4535 12.831 9.28452 14.6475 8.64547 16.6719C8.00642 18.6962 7.92063 20.8547 8.39699 22.9234C8.87334 24.9921 9.8945 26.8956 11.3545 28.4366C12.8146 29.9776 14.6603 31.0999 16.7003 31.6871L14.9502 33.8747H11.25C10.7613 33.8675 10.2896 34.0541 9.93816 34.3938C9.58673 34.7336 9.3842 35.1987 9.37489 35.6873V36.2498H8.12481C7.96078 36.2525 7.80436 36.3195 7.6893 36.4365C7.57424 36.5534 7.50976 36.7109 7.50977 36.8749C7.50977 37.039 7.57426 37.1965 7.68933 37.3134C7.8044 37.4303 7.96082 37.4973 8.12485 37.5H31.8763C32.0398 37.4966 32.1955 37.4292 32.31 37.3124C32.4244 37.1955 32.4885 37.0385 32.4885 36.8749C32.4885 36.7114 32.4244 36.5543 32.31 36.4375C32.1955 36.3206 32.0398 36.2533 31.8763 36.2499ZM16.5503 33.8747L18.0567 31.9933C19.3435 32.21 20.6576 32.21 21.9444 31.9933L23.4508 33.8747H16.5503Z" fill="#56BF7C"/>
<path d="M24.783 17.7048C24.783 17.7112 22.0289 19.6189 22.0391 19.63C22.3428 19.8162 22.6942 19.9095 23.0503 19.8985C23.4063 19.8875 23.7513 19.7726 24.0429 19.568C24.3345 19.3634 24.5599 19.0781 24.6914 18.747C24.8229 18.416 24.8547 18.0537 24.783 17.7048Z" fill="#56BF7C"/>
<path d="M12.7889 8.72309C13.1215 8.33164 13.5394 8.02167 14.0105 7.81701C14.4816 7.61235 14.9934 7.51846 15.5064 7.54255C16.0195 7.56664 16.5202 7.70807 16.9701 7.95597C17.4199 8.20387 17.8069 8.55164 18.1014 8.97252C18.3958 9.39341 18.5897 9.87621 18.6684 10.3838C18.747 10.8914 18.7081 11.4102 18.5548 11.9005C18.4015 12.3907 18.1378 12.8392 17.784 13.2116C17.4302 13.584 16.9958 13.8702 16.514 14.0484L19.5393 18.3612C19.7233 18.6187 19.9998 18.795 20.3108 18.8532C20.6219 18.9115 20.9434 18.8471 21.2081 18.6737C21.2175 18.6722 21.2262 18.6678 21.2331 18.6612L24.1521 16.6173C24.1583 16.6111 24.1708 16.6048 24.1771 16.5986C24.4311 16.408 24.6016 16.1266 24.6528 15.8132C24.7041 15.4998 24.6322 15.1788 24.4521 14.9172L16.9579 4.21654C16.7709 3.95293 16.4876 3.7736 16.1694 3.71743C15.8512 3.66126 15.5236 3.73278 15.2577 3.91648L13.1013 5.43538C11.247 6.57033 11.6443 7.19109 12.7889 8.72309Z" fill="#56BF7C"/>
<path d="M11.6562 4.91667C12.3082 4.47436 14.0698 3.19697 14.7064 2.79147C14.4036 2.596 14.0496 2.49466 13.6891 2.50022C13.3287 2.50578 12.978 2.618 12.6813 2.82272L12.2 3.16654C11.9024 3.37234 11.6739 3.6633 11.5445 4.00126C11.4151 4.33923 11.3908 4.70841 11.4749 5.06038C11.531 5.00723 11.5917 4.95914 11.6562 4.91667Z" fill="#56BF7C"/>
</svg>
