<svg width="18" height="18" viewBox="0 0 18 18" fill="none" xmlns="http://www.w3.org/2000/svg">
<g clip-path="url(#clip0_2305_29040)">
<path fill-rule="evenodd" clip-rule="evenodd" d="M12 2.39992V1.79994C12 0.805773 12.8058 0 13.8 0C14.7942 0 15.6 0.805773 15.6 1.79994V2.39992H16.2C16.6776 2.39992 17.1354 2.58951 17.4726 2.9273C17.8104 3.26449 18 3.72228 18 4.19986V16.2001C18 16.6776 17.8104 17.1354 17.4726 17.4726C17.1354 17.8104 16.6776 18 16.2 18C13.1076 18 4.8924 18 1.8 18C1.3224 18 0.8646 17.8104 0.5268 17.4726C0.1896 17.1354 0 16.6776 0 16.2001V4.19986C0 3.72228 0.1896 3.26449 0.5268 2.9273C0.8646 2.58951 1.3224 2.39992 1.8 2.39992H2.4V1.79994C2.4 0.805773 3.2058 0 4.2 0C5.1942 0 6 0.805773 6 1.79994V2.39992H7.2V1.79994C7.2 0.805773 8.0058 0 9 0C9.9936 0 10.8 0.805773 10.8 1.79994V2.39992H12ZM16.8 7.20036V16.2001C16.8 16.3591 16.737 16.5114 16.6242 16.6242C16.512 16.737 16.359 16.8 16.2 16.8H1.8C1.641 16.8 1.488 16.737 1.3758 16.6242C1.263 16.5114 1.2 16.3591 1.2 16.2001V7.20036H16.8ZM7.2 8.39972H3.6C3.2688 8.39972 3 8.66851 3 8.9997V15.0013C3 15.3325 3.2688 15.6013 3.6 15.6013H14.3994C14.7306 15.6013 14.9994 15.3325 14.9994 15.0013V8.9997C14.9994 8.66851 14.7306 8.39972 14.3994 8.39972H7.2ZM6.5994 12.6008V14.4013H4.2V12.6008H6.5994ZM10.1994 12.6008V14.4013H7.8V12.6008H10.1994ZM13.7994 12.6008V14.4013H11.4V12.6008H13.7994ZM13.7994 11.4002H11.4V9.59968H13.7994V11.4002ZM10.1994 11.4002H7.8V9.59968H10.1994V11.4002ZM6.5994 11.4002H4.2V9.59968H6.5994V11.4002ZM2.4 3.59988H1.8C1.641 3.59988 1.488 3.66288 1.3758 3.77567C1.263 3.88787 1.2 4.04087 1.2 4.19986V6.0004H9H16.8V4.19986C16.8 4.04087 16.737 3.88787 16.6242 3.77567C16.512 3.66288 16.359 3.59988 16.2 3.59988H15.6C15.6 4.59405 14.7942 5.39982 13.8 5.39982C12.8058 5.39982 12 4.59465 12 3.60048L10.8 3.59988C10.8 4.59405 9.9942 5.39982 9 5.39982C8.0058 5.39982 7.2 4.59465 7.2 3.60048L6 3.59988C6 4.59405 5.1942 5.39982 4.2 5.39982C3.2058 5.39982 2.4 4.59405 2.4 3.59988ZM4.2 4.19986C3.8688 4.19986 3.6 3.93167 3.6 3.60048V1.79994C3.6 1.46875 3.8688 1.19996 4.2 1.19996C4.5312 1.19996 4.8 1.46875 4.8 1.79994V3.60048C4.8 3.93167 4.5312 4.19986 4.2 4.19986ZM9 4.19986C8.6682 4.19986 8.4 3.93167 8.4 3.60048V1.79994C8.4 1.46875 8.6682 1.19996 9 1.19996C9.3312 1.19996 9.6 1.46875 9.6 1.79994V3.60048C9.6 3.93167 9.3312 4.19986 9 4.19986ZM13.8 4.19986C13.4688 4.19986 13.2 3.93167 13.2 3.60048V1.79994C13.2 1.46875 13.4688 1.19996 13.8 1.19996C14.1312 1.19996 14.4 1.46875 14.4 1.79994V3.60048C14.4 3.93167 14.1312 4.19986 13.8 4.19986Z" fill="#1CA74E"/>
</g>
<defs>
<clipPath id="clip0_2305_29040">
<rect width="18" height="18" fill="white"/>
</clipPath>
</defs>
</svg>
