<svg width="18" height="24" viewBox="0 0 18 24" fill="none" xmlns="http://www.w3.org/2000/svg">
<path d="M17.5447 4.64342L13.1139 0.21265C13.0469 0.145619 12.9312 0.10376 12.8511 0.10376C9.04011 0.10376 5.65981 0.10376 1.83467 0.10376C1.01473 0.10376 0.347656 0.770838 0.347656 1.59078V22.4092C0.347656 23.2292 1.01473 23.8962 1.83467 23.8962H16.1666C16.9865 23.8962 17.6536 23.2292 17.6536 22.4092V4.90624C17.6536 4.82328 17.6122 4.71096 17.5447 4.64342ZM16.3844 4.53448H13.9664C13.5563 4.53448 13.2229 4.20101 13.2229 3.79095V1.37295L16.3844 4.53448ZM5.4958 0.847244V3.93115L4.93255 3.47173C4.79656 3.36068 4.60011 3.3596 4.46277 3.47173L3.89952 3.93115V0.847244H5.4958ZM16.1666 23.1527H1.83467C1.42461 23.1527 1.09114 22.8192 1.09114 22.4092V1.59073C1.09114 1.18067 1.42461 0.847197 1.83467 0.847197H3.15598V4.71401C3.15598 5.02667 3.52039 5.20001 3.76264 5.0021L4.69766 4.23954L5.63267 5.0021C5.87445 5.19968 6.23933 5.02723 6.23933 4.71401V0.847244H12.4793V3.79099C12.4793 4.61093 13.1464 5.27801 13.9663 5.27801H16.9101V22.4092C16.9101 22.8192 16.5767 23.1527 16.1666 23.1527Z" fill="#1CA74E"/>
<path d="M15.0658 7.21851H2.93427C2.72895 7.21851 2.5625 7.38496 2.5625 7.59027C2.5625 7.79558 2.72895 7.96204 2.93427 7.96204H15.0658C15.2711 7.96204 15.4376 7.79558 15.4376 7.59027C15.4376 7.38496 15.2711 7.21851 15.0658 7.21851Z" fill="#1CA74E"/>
<path d="M2.93427 9.85022H9.87987C10.0852 9.85022 10.2516 9.68377 10.2516 9.47846C10.2516 9.27314 10.0852 9.10669 9.87987 9.10669H2.93427C2.72895 9.10669 2.5625 9.27314 2.5625 9.47846C2.5625 9.68377 2.72895 9.85022 2.93427 9.85022Z" fill="#1CA74E"/>
<path d="M15.0658 12.7925H2.93427C2.72895 12.7925 2.5625 12.9589 2.5625 13.1642C2.5625 13.3696 2.72895 13.536 2.93427 13.536H15.0658C15.2711 13.536 15.4376 13.3696 15.4376 13.1642C15.4376 12.9589 15.2711 12.7925 15.0658 12.7925Z" fill="#1CA74E"/>
<path d="M2.93427 15.4241H9.87987C10.0852 15.4241 10.2516 15.2576 10.2516 15.0523C10.2516 14.847 10.0852 14.6805 9.87987 14.6805H2.93427C2.72895 14.6805 2.5625 14.847 2.5625 15.0523C2.5625 15.2576 2.72895 15.4241 2.93427 15.4241Z" fill="#1CA74E"/>
<path d="M15.0658 18.3663H2.93427C2.72895 18.3663 2.5625 18.5328 2.5625 18.7381C2.5625 18.9434 2.72895 19.1099 2.93427 19.1099H15.0658C15.2711 19.1099 15.4376 18.9434 15.4376 18.7381C15.4376 18.5328 15.2711 18.3663 15.0658 18.3663Z" fill="#1CA74E"/>
<path d="M9.87987 20.2545H2.93427C2.72895 20.2545 2.5625 20.421 2.5625 20.6263C2.5625 20.8316 2.72895 20.998 2.93427 20.998H9.87987C10.0852 20.998 10.2516 20.8316 10.2516 20.6263C10.2516 20.421 10.0852 20.2545 9.87987 20.2545Z" fill="#1CA74E"/>
</svg>
