<svg width="40" height="40" viewBox="0 0 40 40" fill="none" xmlns="http://www.w3.org/2000/svg">
<path d="M35.0621 32.6859L24.2009 13.8995V3.42773H26.3982V1.23047H13.2146V3.42773H15.4119V13.8995L4.55119 32.6859C3.8222 33.9471 3.82129 35.4533 4.54959 36.7152C5.27743 37.9772 6.58206 38.7305 8.03844 38.7305H31.5744C33.0312 38.7305 34.3356 37.9772 35.0637 36.7152C35.792 35.4533 35.791 33.9471 35.0621 32.6859ZM12.116 28.4033C12.116 27.5942 12.7722 26.9385 13.5808 26.9385C14.3899 26.9385 15.0457 27.5942 15.0457 28.4033C15.0457 29.2124 14.3899 29.8682 13.5808 29.8682C12.7722 29.8682 12.116 29.2124 12.116 28.4033ZM15.0457 34.2627C14.237 34.2627 13.5808 33.6069 13.5808 32.7979C13.5808 31.9888 14.237 31.333 15.0457 31.333C15.8548 31.333 16.5105 31.9888 16.5105 32.7979C16.5105 33.6069 15.8548 34.2627 15.0457 34.2627ZM21.6375 30.9668C20.4241 30.9668 19.4402 29.9828 19.4402 28.7695C19.4402 27.5562 20.4241 26.5723 21.6375 26.5723C22.8512 26.5723 23.8347 27.5562 23.8347 28.7695C23.8347 29.9828 22.8512 30.9668 21.6375 30.9668ZM13.757 21.1523L17.6091 14.4891V3.42773H22.0037V14.4891L25.8562 21.1523H13.757ZM28.2292 34.2627C27.4206 34.2627 26.7644 33.6069 26.7644 32.7979C26.7644 31.9888 27.4206 31.333 28.2292 31.333C29.0383 31.333 29.6941 31.9888 29.6941 32.7979C29.6941 33.6069 29.0383 34.2627 28.2292 34.2627Z" fill="#56BF7C"/>
</svg>
