<svg width="24" height="25" viewBox="0 0 24 25" fill="none" xmlns="http://www.w3.org/2000/svg">
<g clip-path="url(#clip0_3095_4109)">
<path d="M23.246 9.38745C22.357 8.64148 21.0268 8.7582 20.2822 9.64555L18.2808 12.0138V5.14644C18.2808 4.57086 18.0415 4.01347 17.6242 3.61714L14.9534 1.08003C14.5597 0.706016 14.0438 0.5 13.5007 0.5H2.10933C0.946266 0.5 0 1.44627 0 2.60933V22.3902C0 23.5532 0.946266 24.4995 2.10933 24.4995H16.1715C17.3346 24.4995 18.2809 23.5532 18.2809 22.3902V18.5482C18.3673 18.4459 23.4898 12.3782 23.5059 12.3591C24.2553 11.4661 24.1392 10.1369 23.246 9.38745ZM14.0622 2.17297C16.8753 4.84522 16.6755 4.64989 16.7283 4.7187H14.0622V2.17297ZM16.8746 22.3902C16.8746 22.7779 16.5592 23.0933 16.1715 23.0933H2.10933C1.72163 23.0933 1.4062 22.7779 1.4062 22.3902V2.60933C1.4062 2.22163 1.72163 1.9062 2.10933 1.9062H12.656V5.42173C12.656 5.81005 12.9708 6.12486 13.3591 6.12486H16.8746V13.6778C16.5726 14.0352 14.1475 16.9048 13.8854 17.215C13.676 17.4645 13.5253 17.7639 13.4497 18.0807L12.7962 20.8162C12.7344 21.0752 12.8242 21.347 13.0282 21.5182C13.2323 21.6896 13.5156 21.7305 13.7597 21.6247L16.3402 20.5062C16.5339 20.4222 16.7146 20.3081 16.8746 20.171V22.3902ZM15.2023 17.8354L16.2794 18.7392L16.0398 19.0228C15.9701 19.106 15.8805 19.1728 15.7809 19.216L14.4907 19.7752L14.8175 18.4075C14.8427 18.3019 14.8929 18.2021 14.9611 18.1208L15.2023 17.8354ZM17.1864 17.6646L16.1099 16.7613C16.2191 16.6321 19.752 12.4515 19.9963 12.1624L21.0706 13.0639L17.1864 17.6646ZM22.4301 11.4536L21.9778 11.9894L20.904 11.0884L21.3578 10.5513C21.6058 10.2559 22.0474 10.2173 22.3421 10.4646C22.6426 10.7168 22.6758 11.1608 22.4301 11.4536Z" fill="#1CA74E"/>
<path d="M10.5467 4.71875H3.51562C3.12731 4.71875 2.8125 5.03356 2.8125 5.42188C2.8125 5.81019 3.12731 6.125 3.51562 6.125H10.5467C10.935 6.125 11.2499 5.81019 11.2499 5.42188C11.2499 5.03356 10.935 4.71875 10.5467 4.71875Z" fill="#1CA74E"/>
<path d="M14.7654 8.98438H3.51562C3.12731 8.98438 2.8125 9.29919 2.8125 9.6875C2.8125 10.0758 3.12731 10.3906 3.51562 10.3906H14.7654C15.1537 10.3906 15.4685 10.0758 15.4685 9.6875C15.4685 9.29919 15.1537 8.98438 14.7654 8.98438Z" fill="#1CA74E"/>
<path d="M14.7654 13.2031H3.51562C3.12731 13.2031 2.8125 13.5179 2.8125 13.9062C2.8125 14.2946 3.12731 14.6094 3.51562 14.6094H14.7654C15.1537 14.6094 15.4685 14.2946 15.4685 13.9062C15.4685 13.5179 15.1537 13.2031 14.7654 13.2031Z" fill="#1CA74E"/>
<path d="M10.5467 17.4219H3.51562C3.12731 17.4219 2.8125 17.7367 2.8125 18.125C2.8125 18.5133 3.12731 18.8281 3.51562 18.8281H10.5467C10.935 18.8281 11.2499 18.5133 11.2499 18.125C11.2499 17.7367 10.935 17.4219 10.5467 17.4219Z" fill="#1CA74E"/>
</g>
<defs>
<clipPath id="clip0_3095_4109">
<rect width="24" height="24" fill="white" transform="translate(0 0.5)"/>
</clipPath>
</defs>
</svg>
