<svg width="24" height="25" viewBox="0 0 24 25" fill="none" xmlns="http://www.w3.org/2000/svg">
<g clip-path="url(#clip0_4076_13339)">
<path d="M3.6 19.7014H8.688C8.84593 19.7023 9.00248 19.672 9.14869 19.6123C9.29489 19.5526 9.42787 19.4647 9.54 19.3535L17.844 11.0399L21.252 7.70487C21.3645 7.59335 21.4537 7.46066 21.5147 7.31447C21.5756 7.16829 21.607 7.01148 21.607 6.85312C21.607 6.69475 21.5756 6.53795 21.5147 6.39176C21.4537 6.24557 21.3645 6.11289 21.252 6.00136L16.164 0.854855C16.0524 0.742414 15.9197 0.653166 15.7735 0.592262C15.6273 0.531357 15.4704 0.5 15.312 0.5C15.1536 0.5 14.9967 0.531357 14.8505 0.592262C14.7043 0.653166 14.5716 0.742414 14.46 0.854855L11.076 4.24987L2.748 12.5635C2.63678 12.6756 2.54879 12.8085 2.48907 12.9547C2.42936 13.1008 2.39909 13.2573 2.4 13.4152V18.5017C2.4 18.8199 2.52643 19.125 2.75147 19.35C2.97652 19.575 3.28174 19.7014 3.6 19.7014ZM15.312 3.39812L18.708 6.79313L17.004 8.49664L13.608 5.10162L15.312 3.39812ZM4.8 13.9071L11.916 6.79313L15.312 10.1881L8.196 17.3021H4.8V13.9071ZM22.8 22.1007H1.2C0.88174 22.1007 0.576515 22.2271 0.351472 22.4521C0.126428 22.677 0 22.9822 0 23.3003C0 23.6185 0.126428 23.9237 0.351472 24.1486C0.576515 24.3736 0.88174 24.5 1.2 24.5H22.8C23.1183 24.5 23.4235 24.3736 23.6485 24.1486C23.8736 23.9237 24 23.6185 24 23.3003C24 22.9822 23.8736 22.677 23.6485 22.4521C23.4235 22.2271 23.1183 22.1007 22.8 22.1007Z" fill="#1CA74E"/>
</g>
<defs>
<clipPath id="clip0_4076_13339">
<rect width="24" height="24" fill="white" transform="translate(0 0.5)"/>
</clipPath>
</defs>
</svg>
