<svg width="24" height="25" viewBox="0 0 24 25" fill="none" xmlns="http://www.w3.org/2000/svg">
<g clip-path="url(#clip0_3906_3636)">
<path d="M1.84082 0.5V24.5H16.5789L22.16 18.919V0.5H1.84082ZM16.9961 22.0693V19.3361H19.7293L16.9961 22.0693ZM20.7361 17.9124H15.5724V23.0763H3.26455V1.92373H20.7361V17.9124Z" fill="#1CA74E"/>
<path d="M14.2293 7.68521C14.5072 7.26413 14.6695 6.76037 14.6695 6.2192C14.6695 4.74732 13.472 3.5498 12.0001 3.5498C10.5282 3.5498 9.33072 4.74732 9.33072 6.2192C9.33072 6.76037 9.493 7.26413 9.77087 7.68521C8.59577 8.14876 7.76172 9.29471 7.76172 10.6325V13.2123H16.2385V10.6325H16.2385C16.2385 9.29471 15.4045 8.14876 14.2293 7.68521ZM12.0001 4.97349C12.687 4.97349 13.2458 5.53229 13.2458 6.21915C13.2458 6.90601 12.687 7.4648 12.0001 7.4648C11.3132 7.4648 10.7545 6.90601 10.7545 6.21915C10.7545 5.53234 11.3133 4.97349 12.0001 4.97349ZM14.8148 11.7885H9.1855V10.6325C9.1855 9.67084 9.9678 8.88854 10.9294 8.88854H13.0709C14.0325 8.88854 14.8148 9.67088 14.8148 10.6325V11.7885Z" fill="#1CA74E"/>
<path d="M16.2843 14.9062H7.84961V16.33H16.2843V14.9062Z" fill="#1CA74E"/>
<path d="M13.8501 17.9121H7.84961V19.3358H13.8501V17.9121Z" fill="#1CA74E"/>
</g>
<defs>
<clipPath id="clip0_3906_3636">
<rect width="24" height="24" fill="white" transform="translate(0 0.5)"/>
</clipPath>
</defs>
</svg>
