<svg width="24" height="24" viewBox="0 0 24 24" fill="none" xmlns="http://www.w3.org/2000/svg">
<path fill-rule="evenodd" clip-rule="evenodd" d="M11.9545 3.39999H12.0463C13.893 3.39998 15.3402 3.39998 16.4694 3.55179C17.6252 3.70718 18.5372 4.03146 19.2531 4.7473C19.8876 5.38182 20.2153 6.17155 20.3896 7.15118C20.5608 8.1135 20.5922 9.31075 20.5987 10.7974C20.6002 11.1287 20.3327 11.3985 20.0014 11.4C19.67 11.4014 19.4002 11.134 19.3987 10.8026C19.3965 10.2901 19.3911 9.82455 19.3789 9.39999H13.2094C13.203 9.40009 13.1966 9.40009 13.1903 9.39999H8.00937C8.00301 9.40009 7.99665 9.40009 7.99028 9.39999H4.62177C4.60075 10.1374 4.60039 10.9937 4.60039 12C4.60039 13.9026 4.60167 15.2691 4.74149 16.3091C4.87899 17.3319 5.1405 17.9484 5.59623 18.4042C5.98381 18.7917 6.48593 19.0372 7.24982 19.1869C8.03047 19.3398 9.03815 19.3842 10.4055 19.3958C10.7368 19.3987 11.0032 19.6695 11.0004 20.0009C10.9976 20.3323 10.7267 20.5986 10.3953 20.5958C9.03213 20.5842 7.92193 20.5413 7.01915 20.3645C6.09962 20.1844 5.35278 19.8578 4.7477 19.2527C4.03185 18.5368 3.70758 17.6248 3.55219 16.469C3.40037 15.3398 3.40038 13.8926 3.40039 12.0459V11.9541C3.40038 10.1074 3.40037 8.66015 3.55219 7.53096C3.70758 6.37517 4.03185 5.46315 4.7477 4.7473C5.46355 4.03146 6.37557 3.70718 7.53135 3.55179C8.66054 3.39998 10.1078 3.39998 11.9545 3.39999ZM4.68584 8.19999H7.67102L9.9559 4.60947C9.05392 4.62331 8.31403 4.65736 7.69125 4.74109C6.66853 4.87859 6.05195 5.14011 5.59623 5.59583C5.1405 6.05156 4.87899 6.66813 4.74149 7.69086C4.71976 7.85242 4.70139 8.02187 4.68584 8.19999ZM11.3661 4.60025C11.3513 4.64214 11.3315 4.68302 11.3066 4.72212L9.09339 8.19999H12.871L15.1355 4.64152C14.2849 4.60055 13.2602 4.59999 12.0004 4.59999C11.782 4.59999 11.5707 4.60001 11.3661 4.60025ZM16.4789 4.76558L14.2934 8.19999H19.3149C19.2884 7.89478 19.2536 7.61663 19.2082 7.36139C19.0608 6.53318 18.8101 6.00142 18.4046 5.59583C17.9746 5.16584 17.4014 4.90874 16.4789 4.76558ZM17.1594 12.7904C17.9466 12.0032 19.2228 12.0032 20.01 12.7904C20.7972 13.5775 20.7972 14.8538 20.01 15.641L16.5846 19.0664C16.3999 19.2511 16.2714 19.3797 16.1272 19.4921C15.9577 19.6243 15.7744 19.7377 15.5803 19.8301C15.4153 19.9088 15.2428 19.9662 14.9951 20.0488L13.4926 20.5496C13.1398 20.6672 12.7509 20.5754 12.488 20.3124C12.225 20.0495 12.1332 19.6605 12.2508 19.3078L12.7516 17.8054C12.8341 17.5576 12.8916 17.3851 12.9702 17.2201C13.0627 17.026 13.176 16.8426 13.3082 16.6732C13.4207 16.529 13.5492 16.4005 13.7339 16.2159L17.1594 12.7904ZM19.1615 13.6389C18.8429 13.3204 18.3265 13.3204 18.008 13.6389L17.9026 13.7443C17.9067 13.7573 17.9112 13.7706 17.9159 13.7844C17.9813 13.9729 18.1056 14.2227 18.3416 14.4588C18.5777 14.6948 18.8275 14.8191 19.016 14.8845C19.0297 14.8892 19.0431 14.8937 19.0561 14.8978L19.1615 14.7924C19.48 14.4739 19.48 13.9574 19.1615 13.6389ZM18.149 15.8049C17.9359 15.6855 17.7102 15.5243 17.4931 15.3073C17.2761 15.0902 17.1149 14.8645 16.9954 14.6514L14.6066 17.0402C14.3889 17.258 14.3159 17.3324 14.2545 17.4112C14.1759 17.5119 14.1085 17.621 14.0535 17.7363C14.0105 17.8265 13.9766 17.925 13.8792 18.2172L13.6027 19.0467L13.7537 19.1977L14.5832 18.9212C14.8753 18.8238 14.9739 18.7898 15.0641 18.7469C15.1794 18.6919 15.2884 18.6245 15.3892 18.5459C15.468 18.4845 15.5424 18.4115 15.7602 18.1938L18.149 15.8049Z" fill="#1CA74E"/>
</svg>
