<svg width="24" height="25" viewBox="0 0 24 25" fill="none" xmlns="http://www.w3.org/2000/svg">
<path d="M23.0753 4.19208L20.8251 1.94208C20.6058 1.72261 20.2498 1.72234 20.0302 1.94181C20.0302 1.94195 20.0301 1.94208 20.0298 1.94208L13.2799 8.69222C13.1744 8.79762 13.1152 8.94059 13.1152 9.08974V11.3399C13.1152 11.6504 13.367 11.9022 13.6776 11.9022H15.9277C16.0769 11.9022 16.2199 11.8431 16.3253 11.7375L23.0753 4.98754C23.2949 4.76807 23.295 4.4121 23.0757 4.1925C23.0755 4.1925 23.0755 4.19222 23.0753 4.19208ZM15.6948 10.7774H14.2401V9.32283L20.4276 3.13533L21.8821 4.58988L15.6948 10.7774Z" fill="#1CA74E"/>
<path d="M21.5516 8.52721C21.2411 8.52721 20.9893 8.77901 20.9893 9.08957V16.9646C20.9883 17.8961 20.2333 18.6511 19.3018 18.6522H13.6768C13.555 18.6519 13.4365 18.6914 13.3392 18.7646L9.73926 21.4647V19.2147C9.73926 18.904 9.48746 18.6522 9.17676 18.6522H3.55176C2.62022 18.6511 1.86522 17.8961 1.8644 16.9647V6.83957C1.86536 5.90817 2.62022 5.15317 3.55176 5.15221H13.6768C13.9875 5.15221 14.2393 4.9004 14.2393 4.58971C14.2393 4.27915 13.9875 4.02734 13.6768 4.02734H3.55176C1.9991 4.02886 0.740771 5.28719 0.739258 6.83957V16.9647C0.740771 18.5172 1.9991 19.7756 3.55176 19.7772H8.61426V22.5897C8.61426 22.9003 8.86606 23.1521 9.17676 23.1521C9.29853 23.1521 9.41687 23.1126 9.51429 23.0397L13.8649 19.7771H19.3018C20.8544 19.7756 22.1126 18.5172 22.1143 16.9646V9.08971C22.1143 8.77901 21.8623 8.52721 21.5516 8.52721Z" fill="#1CA74E"/>
<path d="M10.3016 7.40234H4.6769C4.36606 7.40234 4.11426 7.65415 4.11426 7.96484C4.11426 8.2754 4.36606 8.52721 4.6769 8.52721H10.3016C10.6123 8.52721 10.8643 8.2754 10.8643 7.96484C10.8643 7.65415 10.6123 7.40234 10.3016 7.40234Z" fill="#1CA74E"/>
<path d="M4.6769 11.9023H10.3016C10.6123 11.9023 10.8643 11.6504 10.8643 11.3398C10.8643 11.0291 10.6123 10.7773 10.3016 10.7773H4.6769C4.36606 10.7773 4.11426 11.0291 4.11426 11.3398C4.11426 11.6504 4.36606 11.9023 4.6769 11.9023Z" fill="#1CA74E"/>
<path d="M4.6769 15.2772H18.1768C18.4875 15.2772 18.7391 15.0254 18.7391 14.7147C18.7391 14.4041 18.4873 14.1523 18.1768 14.1523H4.6769C4.36606 14.1523 4.11426 14.4041 4.11426 14.7147C4.11426 15.0254 4.36606 15.2772 4.6769 15.2772Z" fill="#1CA74E"/>
</svg>
