<svg width="41" height="40" viewBox="0 0 41 40" fill="none" xmlns="http://www.w3.org/2000/svg">
<g clip-path="url(#clip0_378_6980)">
<path d="M27.6192 37.2881H16.7717C16.3975 37.2881 16.0938 36.985 16.0938 36.6101C16.0938 36.2352 16.3975 35.9322 16.7717 35.9322C19.3887 35.9322 21.5175 33.8026 21.5175 31.1864C21.5175 30.8115 21.8212 30.5084 22.1954 30.5084C22.5697 30.5084 22.8734 30.8115 22.8734 31.1864C22.8734 33.8026 25.0022 35.9322 27.6192 35.9322C27.9934 35.9322 28.2971 36.2352 28.2971 36.6101C28.2971 36.985 27.9934 37.2881 27.6192 37.2881Z" fill="#56BF7C"/>
<path d="M22.194 27.1186C29.6826 27.1186 35.7533 21.0479 35.7533 13.5594C35.7533 6.0708 29.6826 0.00012207 22.194 0.00012207C14.7054 0.00012207 8.63477 6.0708 8.63477 13.5594C8.63477 21.0479 14.7054 27.1186 22.194 27.1186Z" fill="#E1F4FC"/>
<path d="M22.8935 13.1661C21.5267 13.7905 19.8 13.3004 19.0325 11.9024C18.3098 10.5858 17.1051 10.2868 17.1051 10.2868C11.9953 8.70038 13.1702 7.97491 14.4536 7.67319C15.0136 7.54101 15.5939 7.49827 16.1682 7.52812C19.0793 7.67655 19.9289 5.14438 19.9289 5.14438C20.3661 3.84063 18.7736 0.926112 18.5458 0.52002C13.9065 1.82861 10.2719 5.51062 9.06445 10.1648C10.2577 10.8862 11.457 10.754 11.457 10.754C14.4963 10.754 14.7757 14.1051 14.7702 15.3973C14.7675 16.0034 14.8183 16.6095 14.9533 17.2007C15.8109 20.9566 18.5166 20.5728 18.5166 20.5728C19.4379 20.5728 20.2353 20.0481 20.6217 19.282C20.9742 18.5837 21.5078 18.004 22.1634 17.5776C23.9776 16.3986 24.1688 14.8576 24.0292 13.8095C23.9586 13.2767 23.3851 12.9411 22.8935 13.1661Z" fill="#56BF7C"/>
<path d="M35.7541 13.5336C35.7541 12.3065 35.59 11.1187 35.2883 9.98788C32.2863 10.398 30.7602 9.91265 30.1127 9.57702C29.634 9.3296 29.0659 9.26179 28.5798 9.49367C27.87 9.83265 27.1337 10.733 27.39 13.0638C27.39 13.0638 27.6768 14.8008 29.6028 15.7722C30.5595 16.255 31.0774 17.3044 30.8374 18.3566C30.5161 19.7654 30.5046 21.6189 32.0341 22.9071C34.3371 20.4685 35.7541 17.1689 35.7541 13.5336Z" fill="#56BF7C"/>
<path d="M27.6476 1.14453L27.3378 1.40281C26.2395 2.26109 24.9771 3.50655 25.6266 4.75944C25.6266 4.75944 26.8985 6.21912 28.5846 5.16889C28.9086 4.96686 29.1704 4.6821 29.3995 4.37702C29.5968 4.11468 29.9676 3.70788 30.6104 3.27265L30.8592 3.1303C29.8937 2.32757 28.813 1.65773 27.6476 1.14453Z" fill="#56BF7C"/>
<path d="M22.1945 27.1187C23.2732 27.1187 24.3206 26.9892 25.3261 26.7513C24.9701 26.0082 24.7661 25.215 24.6555 24.514C24.4657 23.314 23.4094 22.4435 22.1945 22.4435C20.1267 22.4435 18.4542 24.1167 18.4542 26.1838L18.4102 26.5797C19.6115 26.9281 20.8806 27.1187 22.1945 27.1187Z" fill="#56BF7C"/>
<path d="M22.1956 31.8645C12.1021 31.8645 3.89062 23.653 3.89062 13.5595C3.89062 8.93172 5.35437 4.79276 8.12381 1.59074C8.36858 1.30738 8.79701 1.27613 9.07975 1.52089C9.36248 1.76566 9.39435 2.19409 9.14889 2.47753C6.59569 5.4301 5.24656 9.26188 5.24656 13.5595C5.24656 22.9053 12.8499 30.5086 22.1956 30.5086C28.5536 30.5086 31.6444 27.8354 34.6336 25.2503C34.9163 25.0042 35.3447 25.0361 35.5895 25.3195C35.8343 25.6028 35.8031 26.0313 35.5203 26.2754C32.3434 29.0238 29.0587 31.8645 22.1956 31.8645Z" fill="#B7E7C8"/>
<path d="M9.99161 4.06801C9.81801 4.06801 9.6445 4.00161 9.51231 3.86934L6.80037 1.15748C6.53529 0.892399 6.53529 0.463885 6.80037 0.198808C7.06474 -0.0662693 7.49459 -0.0662693 7.75904 0.198808L10.4709 2.91067C10.736 3.17575 10.736 3.60426 10.4709 3.86934C10.3387 4.00161 10.1651 4.06801 9.99161 4.06801Z" fill="#56BF7C"/>
<path d="M36.4329 27.7968C36.2593 27.7968 36.0858 27.7304 35.9536 27.5981L33.2418 24.8862C32.9767 24.6212 32.9767 24.1926 33.2418 23.9276C33.5062 23.6625 33.936 23.6625 34.2004 23.9276L36.9123 26.6394C37.1774 26.9045 37.1774 27.333 36.9123 27.5981C36.78 27.7303 36.6065 27.7968 36.4329 27.7968Z" fill="#56BF7C"/>
<path d="M28.2974 40H16.094C15.7198 40 15.416 39.697 15.416 39.3221V36.6102C15.416 36.2353 15.7198 35.9323 16.094 35.9323H28.2973C28.6715 35.9323 28.9753 36.2353 28.9753 36.6102V39.3221C28.9753 39.697 28.6716 40 28.2974 40Z" fill="#B7E7C8"/>
</g>
<defs>
<clipPath id="clip0_378_6980">
<rect width="40" height="40" fill="white" transform="translate(0.5)"/>
</clipPath>
</defs>
</svg>
