<svg width="40" height="40" viewBox="0 0 40 40" fill="none" xmlns="http://www.w3.org/2000/svg">
<g clip-path="url(#clip0_378_6970)">
<path d="M34.8438 30.4688H35V12.7866L32.1353 10.7031L34.6353 9.14062L32.9166 7.83844V6.17188H35V4.60938C35 2.49512 33.2861 0.78125 31.1719 0.78125H4.53125L4.53186 0.782776C4.50592 0.782471 4.48059 0.78125 4.45496 0.78125C2.42615 0.78125 0.78125 2.92877 0.78125 5.578C0.78125 7.76123 2.13684 9.53125 3.8089 9.53125H8.91235V22.6953L11.3019 24.2447L8.91235 26.38V33.3984C8.91235 37.2134 10.9079 39.2188 13.3698 39.2188C13.5501 39.2188 13.7274 39.201 13.9008 39.1681L13.898 39.2188H34.8438C37.2601 39.2188 39.2188 37.2601 39.2188 34.8438C39.2188 32.4274 37.2601 30.4688 34.8438 30.4688Z" fill="#56BF7C"/>
<path d="M35.7812 29.7745V12.7866C35.7812 12.5366 35.6616 12.3016 35.4596 12.1545L33.5309 10.7523L35.0494 9.80316C35.2673 9.66705 35.4044 9.43237 35.416 9.17572C35.4272 8.91907 35.3119 8.6731 35.1071 8.51807L33.6978 7.45026V6.95312H35C35.4315 6.95312 35.7812 6.60339 35.7812 6.17188V4.60938C35.7812 2.06787 33.7134 0 31.1719 0H4.53125C4.52332 0 4.51599 0.000915531 4.50836 0.0012207C4.49036 0.000915531 4.47296 0 4.45496 0C3.22479 0 2.08191 0.607605 1.23688 1.71112C0.439148 2.75269 0 4.12598 0 5.578C0 8.18848 1.70868 10.3125 3.8089 10.3125H8.1311V22.6953C8.1311 22.9602 8.26508 23.2068 8.48724 23.3508L10.0189 24.3439L8.39172 25.7977C8.22601 25.9457 8.1311 26.1578 8.1311 26.3803V33.1509C8.1311 33.1931 8.13538 33.2343 8.14178 33.2745C8.13538 33.3151 8.1311 33.3563 8.1311 33.3984C8.1311 35.386 8.64441 37.059 9.61517 38.2364C10.553 39.3735 11.8866 40 13.3701 40H34.8438C37.6871 40 40 37.6871 40 34.8438C40 32.3209 38.1781 30.2167 35.7812 29.7745ZM6.41205 8.75C6.64215 8.31635 6.77246 7.81586 6.77246 7.27814C6.77246 5.47699 5.60577 4.21875 3.93494 4.21875C3.50342 4.21875 3.15369 4.56848 3.15369 5C3.15369 5.43152 3.50342 5.78125 3.93494 5.78125C4.73328 5.78125 5.20996 6.34094 5.20996 7.27814C5.20996 8.23425 4.48792 8.75 3.8089 8.75C2.59125 8.75 1.5625 7.29736 1.5625 5.578C1.5625 3.36395 2.86011 1.5625 4.45496 1.5625C5.55969 1.5625 6.42334 1.90582 7.02118 2.5827C7.75787 3.41614 8.1311 4.76837 8.1311 6.60156V8.75H6.41205ZM10.8206 37.2421C10.0833 36.348 9.6936 35.0189 9.6936 33.3984C9.6936 33.3563 9.68933 33.3151 9.68292 33.2745C9.68933 33.2343 9.6936 33.1931 9.6936 33.1509V26.7297L11.8225 24.8273C12.0041 24.6652 12.0999 24.4275 12.081 24.1846C12.0624 23.942 11.9315 23.7216 11.7273 23.5892L9.6936 22.2708V6.60156C9.6936 4.38507 9.1922 2.69012 8.20435 1.5625H31.1719C32.8519 1.5625 34.2188 2.92938 34.2188 4.60938V5.39062H32.9166C32.4854 5.39062 32.1353 5.74036 32.1353 6.17188V7.83844C32.1353 8.08319 32.2501 8.3136 32.4451 8.4613L33.2602 9.07898L31.7215 10.0406C31.5012 10.1782 31.3638 10.4163 31.3547 10.6757C31.3455 10.9351 31.4661 11.1823 31.676 11.3348L34.2188 13.1842V29.6875H14.3567C14.3182 29.6875 14.2804 29.6912 14.2432 29.6967C14.1681 29.6912 14.0924 29.6875 14.0158 29.6875C12.3541 29.6875 11.0522 31.0205 11.0522 32.7219C11.0522 34.5233 12.2189 35.7812 13.8898 35.7812C14.3213 35.7812 14.671 35.4315 14.671 35C14.671 34.5685 14.3213 34.2188 13.8898 34.2188C13.0914 34.2188 12.6147 33.6591 12.6147 32.7219C12.6147 31.7657 13.3368 31.25 14.0158 31.25C15.2335 31.25 16.2622 32.7026 16.2622 34.422C16.2622 36.636 14.9649 38.4375 13.3701 38.4375C12.3471 38.4375 11.4655 38.0243 10.8206 37.2421ZM34.8438 38.4375H16.4682C16.5085 38.3887 16.5488 38.3398 16.5878 38.2889C17.3367 37.3111 17.7695 36.0406 17.8198 34.6875H30C30.4315 34.6875 30.7812 34.3378 30.7812 33.9062C30.7812 33.4747 30.4315 33.125 30 33.125H17.6782C17.5165 32.4194 17.2266 31.7801 16.8408 31.25H34.8438C36.8253 31.25 38.4375 32.8622 38.4375 34.8438C38.4375 36.8253 36.8253 38.4375 34.8438 38.4375Z" fill="#B7E7C8"/>
<path d="M14.793 7.65625C14.9984 7.65625 15.1992 7.57263 15.3453 7.42737C15.4906 7.2821 15.5742 7.08038 15.5742 6.875C15.5742 6.66962 15.4906 6.4679 15.3453 6.32263C15.1992 6.17737 14.9984 6.09375 14.793 6.09375C14.5867 6.09375 14.3859 6.17737 14.2406 6.32263C14.0953 6.4679 14.0117 6.66962 14.0117 6.875C14.0117 7.08038 14.0953 7.2821 14.2406 7.42737C14.3859 7.57263 14.5867 7.65625 14.793 7.65625Z" fill="#B7E7C8"/>
<path d="M18.125 7.65625H29.4028C29.8343 7.65625 30.184 7.30652 30.184 6.875C30.184 6.44348 29.8343 6.09375 29.4028 6.09375H18.125C17.6935 6.09375 17.3438 6.44348 17.3438 6.875C17.3438 7.30652 17.6935 7.65625 18.125 7.65625Z" fill="#B7E7C8"/>
<path d="M14.793 12.0312H29.4023C29.8339 12.0312 30.1836 11.6815 30.1836 11.25C30.1836 10.8185 29.8339 10.4688 29.4023 10.4688H14.793C14.3618 10.4688 14.0117 10.8185 14.0117 11.25C14.0117 11.6815 14.3618 12.0312 14.793 12.0312Z" fill="#B7E7C8"/>
<path d="M14.793 16.4062H29.4023C29.8339 16.4062 30.1836 16.0565 30.1836 15.625C30.1836 15.1935 29.8339 14.8438 29.4023 14.8438H14.793C14.3618 14.8438 14.0117 15.1935 14.0117 15.625C14.0117 16.0565 14.3618 16.4062 14.793 16.4062Z" fill="#B7E7C8"/>
<path d="M14.793 20.7812H29.4023C29.8339 20.7812 30.1836 20.4315 30.1836 20C30.1836 19.5685 29.8339 19.2188 29.4023 19.2188H14.793C14.3618 19.2188 14.0117 19.5685 14.0117 20C14.0117 20.4315 14.3618 20.7812 14.793 20.7812Z" fill="#B7E7C8"/>
<path d="M14.793 25.1562H29.4023C29.8339 25.1562 30.1836 24.8065 30.1836 24.375C30.1836 23.9435 29.8339 23.5938 29.4023 23.5938H14.793C14.3618 23.5938 14.0117 23.9435 14.0117 24.375C14.0117 24.8065 14.3618 25.1562 14.793 25.1562Z" fill="#B7E7C8"/>
<path d="M33.0371 33.125C32.8314 33.125 32.63 33.2086 32.4847 33.3539C32.3395 33.4991 32.2559 33.7009 32.2559 33.9062C32.2559 34.1116 32.3392 34.3134 32.4847 34.4586C32.63 34.6039 32.8314 34.6875 33.0371 34.6875C33.2425 34.6875 33.4439 34.6039 33.5892 34.4586C33.7347 34.3134 33.8184 34.1116 33.8184 33.9062C33.8184 33.7009 33.7347 33.4991 33.5892 33.3539C33.4439 33.2086 33.2425 33.125 33.0371 33.125Z" fill="#B7E7C8"/>
</g>
<defs>
<clipPath id="clip0_378_6970">
<rect width="40" height="40" fill="white"/>
</clipPath>
</defs>
</svg>
