<svg width="25" height="24" viewBox="0 0 25 24" fill="none" xmlns="http://www.w3.org/2000/svg">
<path fill-rule="evenodd" clip-rule="evenodd" d="M13.5393 1.90565L16.25 4.50047V3.00016C16.25 2.58594 16.5858 2.25016 17 2.25016H19.25C19.6642 2.25016 20 2.58594 20 3.00016V8.09016L23.5186 11.4584C23.8178 11.7448 23.8282 12.2196 23.5418 12.5188C23.2554 12.818 22.7806 12.8284 22.4814 12.5419L21.5 11.6025V21.0002C21.5 21.398 21.342 21.7795 21.0607 22.0608C20.7794 22.3421 20.3978 22.5002 20 22.5002H15.5C15.0858 22.5002 14.75 22.1644 14.75 21.7502V15.3752C14.75 15.2757 14.7105 15.1803 14.6402 15.11C14.5698 15.0397 14.4745 15.0002 14.375 15.0002H10.625C10.5255 15.0002 10.4302 15.0397 10.3598 15.11C10.2895 15.1803 10.25 15.2757 10.25 15.3752V21.7502C10.25 22.1644 9.91422 22.5002 9.5 22.5002H5C4.60218 22.5002 4.22065 22.3421 3.93934 22.0608C3.65804 21.7795 3.5 21.398 3.5 21.0002V11.6025L2.51862 12.5419C2.21941 12.8284 1.74465 12.818 1.45822 12.5188C1.17179 12.2196 1.18216 11.7448 1.48138 11.4584L11.4613 1.90503C11.7673 1.59486 12.1842 1.50041 12.5029 1.50098C12.8203 1.50155 13.2358 1.59677 13.5393 1.90565ZM5 10.1666V21.0002H8.75V15.3752C8.75 14.8779 8.94755 14.401 9.29918 14.0493C9.6508 13.6977 10.1277 13.5002 10.625 13.5002H14.375C14.8723 13.5002 15.3492 13.6977 15.7008 14.0493C16.0525 14.401 16.25 14.8779 16.25 15.3752V21.0002H20V10.1666L12.515 3.00163C12.5105 3.00123 12.5055 3.00099 12.5002 3.00098C12.4948 3.00097 12.4897 3.00121 12.485 3.00162L5 10.1666ZM18.5 6.65429V3.75016H17.75V5.93635L18.5 6.65429Z" fill="#A2A2A2"/>
</svg>
