<svg width="24" height="25" viewBox="0 0 24 25" fill="none" xmlns="http://www.w3.org/2000/svg">
<path d="M22.4219 20.8247L18.2032 10.606C18.1253 10.4173 17.9931 10.2559 17.8234 10.1424C17.6537 10.0289 17.4541 9.96826 17.25 9.96826C17.0458 9.96826 16.8463 10.0289 16.6766 10.1424C16.5069 10.2559 16.3747 10.4173 16.2968 10.606L12.078 20.8247C12.0256 20.95 11.9984 21.0845 11.9981 21.2203C11.9977 21.3562 12.0242 21.4908 12.076 21.6163C12.1279 21.7419 12.204 21.856 12.3001 21.9521C12.3961 22.0482 12.5102 22.1243 12.6358 22.1761C12.7613 22.228 12.8959 22.2545 13.0318 22.2542C13.1676 22.2538 13.3021 22.2267 13.4274 22.1742C13.5527 22.1218 13.6665 22.0451 13.762 21.9486C13.8576 21.852 13.9332 21.7376 13.9844 21.6117L14.8437 19.531H19.6563L20.5155 21.6117C20.5934 21.8005 20.7256 21.962 20.8954 22.0755C21.0651 22.1891 21.2647 22.2497 21.469 22.2497C21.6384 22.2496 21.8052 22.2078 21.9547 22.1278C22.1041 22.0479 22.2315 21.9324 22.3257 21.7915C22.4199 21.6507 22.4779 21.4887 22.4946 21.3201C22.5113 21.1515 22.4862 20.9813 22.4215 20.8247H22.4219ZM15.6954 17.4685L17.2502 13.7021L18.8051 17.4685H15.6954Z" fill="#1CA74E"/>
<path d="M12.555 16.5744C12.7152 16.3531 12.7811 16.0772 12.7381 15.8074C12.6951 15.5376 12.5468 15.2959 12.3258 15.1353C12.3164 15.1283 11.6227 14.6136 10.6153 13.5073C12.4739 10.9911 13.5267 8.12844 13.9561 6.78125H15.4688C15.7423 6.78125 16.0046 6.6726 16.198 6.4792C16.3913 6.28581 16.5 6.0235 16.5 5.75C16.5 5.4765 16.3913 5.21419 16.198 5.0208C16.0046 4.8274 15.7423 4.71875 15.4688 4.71875H10.0312V3.78125C10.0312 3.50775 9.9226 3.24544 9.7292 3.05205C9.53581 2.85865 9.2735 2.75 9 2.75C8.7265 2.75 8.46419 2.85865 8.2708 3.05205C8.0774 3.24544 7.96875 3.50775 7.96875 3.78125V4.71875H2.53125C2.25775 4.71875 1.99544 4.8274 1.80205 5.0208C1.60865 5.21419 1.5 5.4765 1.5 5.75C1.5 6.0235 1.60865 6.28581 1.80205 6.4792C1.99544 6.6726 2.25775 6.78125 2.53125 6.78125H11.7773C11.3311 8.04453 10.5094 10.0391 9.25594 11.8606C7.78359 9.90688 7.23656 8.64266 7.23234 8.63234C7.12456 8.38324 6.92291 8.18668 6.67114 8.08529C6.41937 7.9839 6.13778 7.98585 5.88743 8.09072C5.63709 8.1956 5.43819 8.39494 5.33387 8.64551C5.22954 8.89608 5.22821 9.17767 5.33016 9.42922C5.35734 9.49391 6.01219 11.0338 7.80797 13.3634C7.85109 13.4192 7.89375 13.4736 7.93641 13.528C6.09703 15.6069 4.29234 16.8964 3.53719 17.3127C3.29706 17.4436 3.1188 17.6646 3.04162 17.927C2.96444 18.1894 2.99465 18.4718 3.12563 18.7119C3.2566 18.952 3.47759 19.1303 3.74 19.2074C4.0024 19.2846 4.28472 19.2544 4.52484 19.1234C4.62609 19.0681 6.80297 17.863 9.28875 15.1114C10.3444 16.2402 11.07 16.7727 11.1136 16.8036C11.2233 16.8833 11.3476 16.9405 11.4794 16.9721C11.6113 17.0037 11.748 17.009 11.8819 16.9876C12.0158 16.9663 12.1442 16.9188 12.2597 16.8478C12.3751 16.7768 12.4755 16.6837 12.555 16.5739V16.5744Z" fill="#69C78B"/>
</svg>
