<svg width="20" height="28" viewBox="0 0 20 28" fill="none" xmlns="http://www.w3.org/2000/svg">
<g clip-path="url(#clip0_2320_32493)">
<path d="M5.33008 5.79H6.10008L5.71008 4.75L5.33008 5.79Z" fill="#1CA74E"/>
<path d="M19.52 5.79C19.26 5.79 16.99 5.79 16.66 5.79C15.35 5.79 14.28 4.71 14.28 3.38C14.29 2.69 14.28 0.66 14.28 0H2.38C1.07 0 0 1.08 0 2.41V25.58C0 26.92 1.07 28 2.38 28H17.62C18.93 28 20 26.92 20 25.59V5.79H19.52ZM10 3.86C10.62 3.86 10.62 4.83 10 4.83H9.52C9.53 5.22 9.58 5.78 9.04 5.8C8.5 5.79 8.55 5.22 8.56 4.83C8.17 4.84 7.62 4.89 7.61 4.35C7.62 3.81 8.17 3.86 8.56 3.87C8.55 3.48 8.5 2.92 9.04 2.9C9.58 2.91 9.53 3.48 9.52 3.87L10 3.86ZM7.31 7.7C6.72 7.9 6.61 7.15 6.45 6.76H4.96C4.81 7.14 4.7 7.89 4.1 7.7C3.88 7.6 3.74 7.32 3.84 7.07L5.27 3.21C5.41 2.83 6.02 2.83 6.17 3.21L7.6 7.07C7.69 7.32 7.55 7.6 7.31 7.7ZM15.71 19.31H4.29C3.67 19.31 3.66 18.34 4.29 18.34H15.72C16.33 18.34 16.34 19.31 15.71 19.31ZM16.19 22.69C16.19 22.96 15.98 23.17 15.71 23.17H4.29C4.02 23.17 3.81 22.96 3.81 22.69C3.81 22.42 4.02 22.21 4.29 22.21H15.72C15.98 22.21 16.19 22.42 16.19 22.69ZM15.71 15.45H4.29C3.67 15.45 3.66 14.48 4.29 14.48H15.72C16.33 14.48 16.34 15.45 15.71 15.45ZM15.71 10.62C16.33 10.62 16.34 11.59 15.71 11.59H4.28C3.66 11.59 3.65 10.62 4.28 10.62H15.71Z" fill="#1CA74E"/>
<path d="M16.6702 4.83004H19.7202L15.2402 0.290039V3.38004C15.2402 4.18004 15.8802 4.83004 16.6702 4.83004Z" fill="#1CA74E"/>
</g>
<defs>
<clipPath id="clip0_2320_32493">
<rect width="20" height="28" fill="white"/>
</clipPath>
</defs>
</svg>
