<svg width="16" height="16" viewBox="0 0 16 16" fill="none" xmlns="http://www.w3.org/2000/svg">
<g clip-path="url(#clip0_2086_37629)">
<path d="M1.83333 0C0.820667 0 0 0.820667 0 1.83333V7.66667H7.66667V0H1.83333ZM4.83333 4.5H4.16667V5.16667C4.16667 5.44267 3.94267 5.66667 3.66667 5.66667C3.39067 5.66667 3.16667 5.44267 3.16667 5.16667V4.5H2.5C2.224 4.5 2 4.276 2 4C2 3.724 2.224 3.5 2.5 3.5H3.16667V2.83333C3.16667 2.55733 3.39067 2.33333 3.66667 2.33333C3.94267 2.33333 4.16667 2.55733 4.16667 2.83333V3.5H4.83333C5.10933 3.5 5.33333 3.724 5.33333 4C5.33333 4.276 5.10933 4.5 4.83333 4.5Z" fill="#1CA74E"/>
<path d="M0 8.33398V14.1673C0 15.18 0.820667 16.0007 1.83333 16.0007H7.66667V8.33398H0ZM5.02 12.6473C5.21533 12.8427 5.21533 13.1593 5.02 13.3547C4.92267 13.452 4.79467 13.5007 4.66667 13.5007C4.53867 13.5007 4.41067 13.452 4.31333 13.354L3.83333 12.874L3.35333 13.354C3.256 13.4513 3.128 13.5007 3 13.5007C2.872 13.5007 2.744 13.452 2.64667 13.354C2.45133 13.1587 2.45133 12.842 2.64667 12.6467L3.12667 12.1667L2.64667 11.6867C2.45133 11.4913 2.45133 11.1747 2.64667 10.9793C2.842 10.784 3.15867 10.784 3.354 10.9793L3.834 11.4593L4.314 10.9793C4.50933 10.784 4.826 10.784 5.02133 10.9793C5.21667 11.1747 5.21667 11.4913 5.02133 11.6867L4.54133 12.1667L5.02 12.6473Z" fill="#1CA74E"/>
<path d="M14.1673 0H8.33398V7.66667H16.0007V1.83333C16.0007 0.820667 15.18 0 14.1673 0ZM13.834 4.33333H10.834C10.558 4.33333 10.334 4.10933 10.334 3.83333C10.334 3.55733 10.558 3.33333 10.834 3.33333H13.834C14.11 3.33333 14.334 3.55733 14.334 3.83333C14.334 4.10933 14.11 4.33333 13.834 4.33333Z" fill="#1CA74E"/>
<path d="M8.33398 8.33398V16.0007H14.1673C15.18 16.0007 16.0007 15.18 16.0007 14.1673V8.33398H8.33398ZM13.6673 13.6673H10.6673C10.3913 13.6673 10.1673 13.4433 10.1673 13.1673C10.1673 12.8913 10.3913 12.6673 10.6673 12.6673H13.6673C13.9433 12.6673 14.1673 12.8913 14.1673 13.1673C14.1673 13.4433 13.9433 13.6673 13.6673 13.6673ZM13.6673 11.6673H10.6673C10.3913 11.6673 10.1673 11.4433 10.1673 11.1673C10.1673 10.8913 10.3913 10.6673 10.6673 10.6673H13.6673C13.9433 10.6673 14.1673 10.8913 14.1673 11.1673C14.1673 11.4433 13.9433 11.6673 13.6673 11.6673Z" fill="#1CA74E"/>
</g>
<defs>
<clipPath id="clip0_2086_37629">
<rect width="16" height="16" fill="white"/>
</clipPath>
</defs>
</svg>
