<svg width="32" height="32" viewBox="0 0 32 32" fill="none" xmlns="http://www.w3.org/2000/svg">
<g clip-path="url(#clip0_378_6711)">
<path d="M3.66667 0C1.64133 0 0 1.64133 0 3.66667V15.3333H15.3333V0H3.66667ZM9.66667 9H8.33333V10.3333C8.33333 10.8853 7.88533 11.3333 7.33333 11.3333C6.78133 11.3333 6.33333 10.8853 6.33333 10.3333V9H5C4.448 9 4 8.552 4 8C4 7.448 4.448 7 5 7H6.33333V5.66667C6.33333 5.11467 6.78133 4.66667 7.33333 4.66667C7.88533 4.66667 8.33333 5.11467 8.33333 5.66667V7H9.66667C10.2187 7 10.6667 7.448 10.6667 8C10.6667 8.552 10.2187 9 9.66667 9Z" fill="#56BF7C"/>
<path d="M0 16.6666V28.3333C0 30.3586 1.64133 32 3.66667 32H15.3333V16.6666H0ZM10.04 25.2933C10.4307 25.684 10.4307 26.3173 10.04 26.708C9.84533 26.9026 9.58933 27 9.33333 27C9.07733 27 8.82133 26.9026 8.62667 26.7066L7.66667 25.7466L6.70667 26.7066C6.512 26.9013 6.256 27 6 27C5.744 27 5.488 26.9026 5.29333 26.7066C4.90267 26.316 4.90267 25.6826 5.29333 25.292L6.25333 24.332L5.29333 23.372C4.90267 22.9813 4.90267 22.348 5.29333 21.9573C5.684 21.5666 6.31733 21.5666 6.708 21.9573L7.668 22.9173L8.628 21.9573C9.01867 21.5666 9.652 21.5666 10.0427 21.9573C10.4333 22.348 10.4333 22.9813 10.0427 23.372L9.08267 24.332L10.04 25.2933Z" fill="#56BF7C"/>
<path d="M28.3327 0H16.666V15.3333H31.9993V3.66667C31.9993 1.64133 30.358 0 28.3327 0ZM27.666 8.66667H21.666C21.114 8.66667 20.666 8.21867 20.666 7.66667C20.666 7.11467 21.114 6.66667 21.666 6.66667H27.666C28.218 6.66667 28.666 7.11467 28.666 7.66667C28.666 8.21867 28.218 8.66667 27.666 8.66667Z" fill="#56BF7C"/>
<path d="M16.666 16.6666V32H28.3327C30.358 32 31.9993 30.3586 31.9993 28.3333V16.6666H16.666ZM27.3327 27.3333H21.3327C20.7807 27.3333 20.3327 26.8853 20.3327 26.3333C20.3327 25.7813 20.7807 25.3333 21.3327 25.3333H27.3327C27.8847 25.3333 28.3327 25.7813 28.3327 26.3333C28.3327 26.8853 27.8847 27.3333 27.3327 27.3333ZM27.3327 23.3333H21.3327C20.7807 23.3333 20.3327 22.8853 20.3327 22.3333C20.3327 21.7813 20.7807 21.3333 21.3327 21.3333H27.3327C27.8847 21.3333 28.3327 21.7813 28.3327 22.3333C28.3327 22.8853 27.8847 23.3333 27.3327 23.3333Z" fill="#56BF7C"/>
</g>
<defs>
<clipPath id="clip0_378_6711">
<rect width="32" height="32" fill="white"/>
</clipPath>
</defs>
</svg>
