<svg width="32" height="32" viewBox="0 0 32 32" fill="none" xmlns="http://www.w3.org/2000/svg">
<g clip-path="url(#clip0_2086_22494)">
<path d="M29.3311 11.6133H2.6688C2.17877 11.6133 1.77832 12.0084 1.77832 12.5038V29.3284C1.77832 29.8184 2.17347 30.2189 2.6688 30.2189H29.3311C29.8211 30.2189 30.2215 29.8236 30.2215 29.3284V12.5038C30.2216 12.0084 29.8212 11.6133 29.3311 11.6133Z" fill="white"/>
<path d="M28.4402 13.3887H3.55371V28.4376H28.4402V13.3887Z" fill="#1CA74E"/>
<path d="M12.2485 22.0204C10.7678 22.0784 9.67188 23.0901 9.67188 24.5391C9.67188 26.0145 10.8732 27.0895 12.2485 27.0578C13.7292 26.9999 14.8252 25.9882 14.8252 24.5391C14.8304 23.0638 13.6237 21.9835 12.2485 22.0204ZM13.7028 24.5338C13.6448 25.4665 13.0652 26.0777 12.2485 26.1041C11.5319 26.1252 10.7731 25.4244 10.7942 24.5338H10.7995C10.8575 23.6012 11.4371 22.99 12.2538 22.9636C12.9704 22.9425 13.7292 23.6433 13.7081 24.5338H13.7028Z" fill="white"/>
<path d="M18.0454 22.0204C16.5647 22.0784 15.4688 23.0901 15.4688 24.5391C15.4688 26.0145 16.6701 27.0895 18.0454 27.0578C19.5261 26.9999 20.622 25.9882 20.622 24.5391C20.6325 23.0638 19.4259 21.9835 18.0454 22.0204ZM19.505 24.5338C19.447 25.4665 18.8674 26.0777 18.0507 26.1041C17.3341 26.1252 16.5753 25.4244 16.5964 24.5338H16.6017C16.6597 23.6012 17.2393 22.99 18.056 22.9636C18.7726 22.9425 19.5314 23.6433 19.5103 24.5338H19.505Z" fill="white"/>
<path d="M8.87117 23.7431C8.82903 22.4943 8.18617 22.1097 6.74763 22.1255H4.8877V26.9995H5.98366V25.4451H6.73712L7.82786 26.9995H9.17674L7.93855 25.2606C8.5603 25.034 8.87117 24.523 8.87117 23.7431ZM6.78456 24.5071H5.98366V23.0634H6.81088C7.36416 23.0739 7.75932 23.1371 7.75932 23.7484C7.74888 24.349 7.45904 24.5018 6.78456 24.5071Z" fill="white"/>
<path d="M24.299 24.808L23.0344 22.126H21.5537V27.0052H22.6498V23.9333L23.9723 26.5995H24.6205L25.9535 23.9333V27.0052H27.0496V22.126H25.5742L24.299 24.808Z" fill="white"/>
<path d="M15.9999 3.55635C16.4899 3.55635 16.8903 3.16119 16.8903 2.66587C16.8903 2.17584 16.4952 1.77539 15.9999 1.77539C15.5045 1.77539 15.1094 2.17054 15.1094 2.66587C15.1094 3.16119 15.5098 3.55635 15.9999 3.55635Z" fill="white"/>
<path d="M29.3315 9.83765H26.4229L18.656 2.48706C18.5611 1.10126 17.4072 0 16.0003 0C14.5513 0 13.3657 1.16451 13.3341 2.60827L5.58307 9.83765H2.66915C1.19906 9.83765 0.00292969 11.0338 0.00292969 12.5039V29.3285C0.00292969 30.8039 1.19906 32 2.66915 32H29.3314C30.8015 32 31.9976 30.8039 31.9976 29.3338V12.5039C31.9977 11.0338 30.8016 9.83765 29.3315 9.83765ZM30.222 29.3285C30.222 29.8185 29.8268 30.219 29.3315 30.219H2.66915C2.17912 30.219 1.77867 29.8237 1.77867 29.3285V12.5039C1.77867 12.0138 2.17382 11.6134 2.66915 11.6134H29.3314C29.8214 11.6134 30.2219 12.0085 30.2219 12.5039V29.3285H30.222ZM16.0003 1.77574C16.4903 1.77574 16.8908 2.17089 16.8908 2.66622C16.8908 3.16154 16.4956 3.5567 16.0003 3.5567C15.505 3.5567 15.1098 3.16154 15.1098 2.66622C15.1098 2.17089 15.5103 1.77574 16.0003 1.77574ZM13.998 4.42085C14.488 4.97942 15.1993 5.33244 16.0003 5.33244C16.8276 5.33244 17.5706 4.95302 18.0553 4.3629L23.8304 9.83765H8.19134L13.998 4.42085Z" fill="#1CA74E"/>
<path d="M7.27424 15.7658C7.7906 15.7658 8.22267 15.9818 8.57047 16.4139L9.25546 15.6393C8.70748 15.0228 8.033 14.7119 7.2268 14.7119C5.91476 14.7066 4.63965 15.7183 4.63965 17.2728C4.63965 18.6797 5.73039 19.8073 7.24791 19.8073C8.00138 19.8073 8.66534 19.4911 9.22384 18.8641L8.51773 18.1421C8.17523 18.5689 7.73264 18.785 7.19518 18.785C6.28889 18.7481 5.74612 18.042 5.77245 17.2675C5.7515 16.456 6.41539 15.7341 7.27424 15.7658Z" fill="white"/>
<path d="M13.2922 18.7738H11.195V14.8271H10.0938V19.7486H13.2922V18.7738Z" fill="white"/>
<path d="M17.6023 19.749H18.7721L16.6434 14.8223H15.5789L13.4502 19.749H14.62L15.0784 18.6845H17.1439L17.6023 19.749ZM15.4946 17.7256L16.1111 16.2976L16.7223 17.7256H15.4946Z" fill="white"/>
<path d="M25.8801 16.7827C25.3058 16.6246 24.8105 16.5351 24.7894 16.1398C24.7999 15.8237 25.0686 15.6129 25.3795 15.6603C25.8327 15.6603 26.2753 15.8237 26.7021 16.145L27.2553 15.3388C26.7653 14.9173 26.054 14.6697 25.4111 14.6907C24.4679 14.6907 23.6407 15.1649 23.6565 16.1608C23.6512 17.2937 24.4048 17.4307 25.311 17.7204C25.8064 17.8522 26.2753 18.005 26.2173 18.337C26.1647 18.7164 25.917 18.827 25.5692 18.8217C25.116 18.8217 24.6313 18.5899 24.0938 18.1209L23.4404 18.9271C24.0622 19.5067 24.763 19.7965 25.5429 19.7965C26.5492 19.8545 27.3818 19.1748 27.3449 18.3053C27.3871 17.5046 26.8602 17.0093 25.8801 16.7827Z" fill="white"/>
<path d="M22.8663 18.3156C22.8979 17.5041 22.3709 17.0141 21.3909 16.7876C20.8166 16.6295 20.3212 16.5399 20.3001 16.1447C20.3106 15.8285 20.5794 15.6178 20.8903 15.6652C21.3434 15.6652 21.786 15.8285 22.2128 16.1499L22.7661 15.3437C22.2761 14.9222 21.5647 14.6745 20.9219 14.6956C19.9787 14.6956 19.1514 15.1698 19.1673 16.1657C19.162 17.2985 19.9155 17.4356 20.8218 17.7253C21.3171 17.857 21.786 18.0099 21.7281 18.3419C21.6754 18.7213 21.4277 18.8319 21.0799 18.8266C20.6267 18.8266 20.142 18.5948 19.6045 18.1258L18.9512 18.932C19.5729 19.5116 20.2737 19.8014 21.0536 19.8014C22.0654 19.8648 22.8979 19.1851 22.8663 18.3156Z" fill="white"/>
</g>
<defs>
<clipPath id="clip0_2086_22494">
<rect width="32" height="32" fill="white"/>
</clipPath>
</defs>
</svg>
