<svg width="40" height="40" viewBox="0 0 40 40" fill="none" xmlns="http://www.w3.org/2000/svg">
<path d="M32.1152 28.5957C32.0777 28.2814 31.8108 28.0451 31.4945 28.0451H30.4008V18.892C30.4008 18.8907 30.4008 18.8889 30.4008 18.8876C30.4008 17.0876 29.5633 15.4439 28.2008 14.3876V17.6376C28.2008 19.5689 26.632 21.1376 24.7008 21.1376C22.7758 21.1376 21.2008 19.5689 21.2008 17.6376V14.3876C19.8483 15.447 19.0127 17.0845 19.0077 18.872C19.0077 18.8764 19.0052 18.8801 19.0052 18.8851V25.5757C17.9602 24.2701 16.3558 23.4314 14.557 23.4314C12.7589 23.4314 11.1552 24.2701 10.1102 25.5745V9.56387H22.4539V17.6376C22.4539 18.8776 23.4627 19.887 24.7033 19.887C25.9439 19.887 26.9527 18.8782 26.9527 17.6376V9.56387H28.8077C29.1514 9.56387 29.4327 9.28262 29.4327 8.93887V5.55762C29.4327 5.20762 29.1514 4.93262 28.8077 4.93262H7.86328C7.51328 4.93262 7.23828 5.20762 7.23828 5.55762V8.93887C7.23828 9.28262 7.51328 9.56387 7.86328 9.56387H8.86016V29.072C8.86016 29.092 8.85703 29.1114 8.85703 29.1314C8.85703 32.2689 11.4133 34.8251 14.557 34.8251C17.7008 34.8251 20.257 32.2689 20.257 29.1314C20.257 29.1201 20.2552 29.1089 20.2552 29.0976V22.4382C21.3002 23.7464 22.9058 24.5876 24.707 24.5876C26.5033 24.5876 28.1058 23.7476 29.1508 22.442V28.0451H28.0564C27.7402 28.0451 27.4733 28.282 27.4358 28.5957L27.042 31.8939C26.9977 32.2657 27.2883 32.5932 27.6627 32.5932H31.8883C32.2627 32.5932 32.5533 32.2664 32.5089 31.8939L32.1152 28.5957ZM14.557 31.3939C13.307 31.3939 12.2945 30.3814 12.2945 29.1314C12.2945 27.8814 13.307 26.8626 14.557 26.8626C15.807 26.8626 16.8258 27.8814 16.8258 29.1314C16.8258 30.3814 15.807 31.3939 14.557 31.3939Z" fill="#EE363A"/>
</svg>
