<svg width="72" height="72" viewBox="0 0 72 72" fill="none" xmlns="http://www.w3.org/2000/svg">
<path d="M32.3996 31.2002H65.9996C68.6504 31.2002 70.7996 33.3494 70.7996 36.0002V60.0014C70.7996 62.6522 68.6504 64.8014 65.9996 64.8014H63.5996L62.8796 69.2054C62.6516 70.5734 61.1156 71.2454 59.9756 70.4774L51.5996 64.8014H32.3996C29.7488 64.8014 27.5996 62.6522 27.5996 60.0014V36.0002C27.5996 33.3494 29.7488 31.2002 32.3996 31.2002Z" fill="#A3DFB9"/>
<path d="M44.4002 6.0002V30.0014C44.4002 32.6534 42.2522 34.8014 39.6002 34.8014H20.4002L12.0242 40.4774C10.8842 41.2454 9.3482 40.5734 9.1202 39.2054L8.4002 34.8014H6.0002C3.3482 34.8014 1.2002 32.6534 1.2002 30.0014V6.0002C1.2002 3.3482 3.3482 1.2002 6.0002 1.2002H39.6002C42.2522 1.2002 44.4002 3.3482 44.4002 6.0002Z" fill="#FFF986"/>
<path d="M22.7996 8.40039C18.8288 8.40039 15.5996 11.6296 15.5996 15.6004V20.4004C15.5996 24.3712 18.8288 27.6004 22.7996 27.6004C24.3524 27.6004 25.7876 27.1012 26.9648 26.2624L27.9512 27.2488C28.1852 27.4828 28.4924 27.6004 28.7996 27.6004C29.1068 27.6004 29.414 27.4828 29.648 27.2488C30.1172 26.7796 30.1172 26.0212 29.648 25.552L28.6616 24.5656C29.5004 23.3884 29.9996 21.9532 29.9996 20.4004V15.6004C29.9996 11.6296 26.7704 8.40039 22.7996 8.40039ZM24.848 20.752C24.3788 20.2828 23.6204 20.2828 23.1512 20.752C22.682 21.2212 22.682 21.9796 23.1512 22.4488L25.2224 24.52C24.5084 24.9412 23.6864 25.2004 22.7996 25.2004C20.1524 25.2004 17.9996 23.0476 17.9996 20.4004V15.6004C17.9996 12.9532 20.1524 10.8004 22.7996 10.8004C25.4468 10.8004 27.5996 12.9532 27.5996 15.6004V20.4004C27.5996 21.2884 27.3416 22.1092 26.9192 22.8232L24.848 20.752Z" fill="#2E2E2E"/>
<path d="M56.3293 55.9972L50.3293 39.1972C50.1589 38.7196 49.7065 38.4004 49.2001 38.4004C48.6937 38.4004 48.2401 38.7196 48.0709 39.1972L42.0709 55.9972C41.8465 56.6212 42.1729 57.3076 42.7969 57.5296C43.4173 57.754 44.1073 57.4264 44.3293 56.8036L46.6165 50.4004H51.7825L54.0697 56.8036C54.2449 57.2944 54.7057 57.6004 55.1989 57.6004C55.3321 57.6004 55.4701 57.5776 55.6021 57.5296C56.2273 57.3064 56.5525 56.62 56.3281 55.9972H56.3293ZM47.4733 48.0004L49.1989 43.1692L50.9245 48.0004H47.4733Z" fill="#2E2E2E"/>
</svg>
