<svg width="28" height="28" viewBox="0 0 28 28" fill="none" xmlns="http://www.w3.org/2000/svg">
<g clip-path="url(#clip0_2086_22516)">
<path d="M25 0H17.5C16.7045 0.00062899 15.9418 0.316901 15.3794 0.879374C14.8169 1.44185 14.5006 2.20454 14.5 3V10.5C14.5006 11.2955 14.8169 12.0582 15.3794 12.6206C15.9418 13.1831 16.7045 13.4994 17.5 13.5H25C25.7955 13.4994 26.5582 13.1831 27.1206 12.6206C27.6831 12.0582 27.9994 11.2955 28 10.5V3C27.9994 2.20454 27.6831 1.44185 27.1206 0.879374C26.5582 0.316901 25.7955 0.00062899 25 0ZM23.9 8.9C23.899 9.31695 23.7326 9.71647 23.4373 10.0108C23.142 10.3052 22.742 10.4703 22.325 10.47H20.175C19.758 10.4703 19.358 10.3052 19.0627 10.0108C18.7674 9.71647 18.601 9.31695 18.6 8.9V3.53C18.6023 3.39894 18.6561 3.27404 18.7496 3.18219C18.8431 3.09034 18.9689 3.03888 19.1 3.03888C19.2311 3.03888 19.3569 3.09035 19.4504 3.18221C19.544 3.27407 19.5977 3.39897 19.6 3.53003V8.9C19.6011 9.05171 19.6621 9.19684 19.7699 9.30365C19.8776 9.41046 20.0233 9.47027 20.175 9.47H22.325C22.4767 9.47027 22.6224 9.41046 22.7301 9.30365C22.8379 9.19684 22.8989 9.05171 22.9 8.9V3.53C22.9 3.39739 22.9527 3.27021 23.0464 3.17645C23.1402 3.08268 23.2674 3.03 23.4 3.03C23.5326 3.03 23.6598 3.08268 23.7536 3.17645C23.8473 3.27021 23.9 3.39739 23.9 3.53V8.9Z" fill="#1CA74E"/>
<path d="M25 14.5H17.5C16.7045 14.5006 15.9418 14.8169 15.3794 15.3794C14.8169 15.9418 14.5006 16.7045 14.5 17.5V25C14.5006 25.7955 14.8169 26.5582 15.3794 27.1206C15.9418 27.6831 16.7045 27.9994 17.5 28H25C25.7955 27.9994 26.5582 27.6831 27.1206 27.1206C27.6831 26.5582 27.9994 25.7955 28 25V17.5C27.9994 16.7045 27.6831 15.9418 27.1206 15.3794C26.5582 14.8169 25.7955 14.5006 25 14.5ZM23.4 24.97H19.1C19.0101 24.9699 18.9219 24.9458 18.8445 24.9001C18.7671 24.8543 18.7034 24.7887 18.66 24.71C18.6183 24.6296 18.5987 24.5396 18.6031 24.4491C18.6075 24.3587 18.6357 24.271 18.685 24.195L22.465 18.53H19.1C18.9687 18.528 18.8434 18.4745 18.7512 18.381C18.659 18.2874 18.6074 18.1613 18.6074 18.03C18.6074 17.8986 18.6591 17.7726 18.7512 17.679C18.8434 17.5855 18.9687 17.5319 19.1 17.53H23.4C23.4899 17.5301 23.5781 17.5542 23.6555 17.5999C23.7329 17.6457 23.7966 17.7113 23.84 17.79C23.8817 17.8704 23.9013 17.9604 23.8969 18.0509C23.8925 18.1413 23.8642 18.229 23.815 18.305L20.035 23.97H23.4C23.5313 23.9719 23.6566 24.0255 23.7488 24.119C23.841 24.2126 23.8926 24.3387 23.8926 24.47C23.8926 24.6013 23.841 24.7274 23.7488 24.821C23.6566 24.9145 23.5313 24.9681 23.4 24.97Z" fill="#1CA74E"/>
<path d="M10.5 14.5H3C2.20454 14.5006 1.44185 14.8169 0.879374 15.3794C0.316901 15.9418 0.00062899 16.7045 0 17.5V25C0.00062899 25.7955 0.316901 26.5582 0.879374 27.1206C1.44185 27.6831 2.20454 27.9994 3 28H10.5C11.2955 27.9994 12.0582 27.6831 12.6206 27.1206C13.1831 26.5582 13.4994 25.7955 13.5 25V17.5C13.4994 16.7045 13.1831 15.9418 12.6206 15.3794C12.0582 14.8169 11.2955 14.5006 10.5 14.5ZM7.25 23.665C7.24758 23.796 7.19383 23.9208 7.10033 24.0126C7.00682 24.1044 6.88102 24.1559 6.74998 24.1558C6.61895 24.1558 6.49315 24.1044 6.39965 24.0126C6.30615 23.9208 6.25241 23.796 6.25 23.665V17.22C6.25204 17.0887 6.30561 16.9635 6.39916 16.8714C6.49271 16.7793 6.61873 16.7277 6.75001 16.7277C6.88129 16.7277 7.00731 16.7793 7.10085 16.8714C7.1944 16.9636 7.24797 17.0888 7.25 17.22V23.665Z" fill="#1CA74E"/>
<path d="M10.24 0H3.26C2.39544 0.000148475 1.56633 0.343659 0.954996 0.954996C0.343659 1.56633 0.000148475 2.39544 0 3.26V10.24C0.000155101 11.1046 0.343668 11.9337 0.955003 12.545C1.56634 13.1563 2.39544 13.4998 3.26 13.5H10.24C11.1046 13.4998 11.9337 13.1563 12.545 12.545C13.1563 11.9337 13.4998 11.1046 13.5 10.24V3.26C13.4999 2.39544 13.1563 1.56633 12.545 0.954996C11.9337 0.343659 11.1046 0.000148475 10.24 0ZM10.51 10.47H5.265C4.95612 10.4697 4.65998 10.3468 4.44157 10.1284C4.22315 9.91002 4.10031 9.61388 4.1 9.305V4.195C4.10031 3.88612 4.22315 3.58997 4.44156 3.37156C4.65997 3.15315 4.95612 3.03031 5.265 3.03H8.235C8.54388 3.03031 8.84003 3.15315 9.05844 3.37156C9.27685 3.58997 9.39969 3.88612 9.4 4.195V9.305C9.39889 9.36053 9.39219 9.41581 9.38 9.47H10.51C10.6413 9.47195 10.7666 9.52548 10.8588 9.61904C10.951 9.7126 11.0026 9.83866 11.0026 9.97C11.0026 10.1013 10.951 10.2274 10.8588 10.321C10.7666 10.4145 10.6413 10.4681 10.51 10.47Z" fill="#1CA74E"/>
<path d="M8.23461 4.03027H5.26461C5.17348 4.03027 5.09961 4.10415 5.09961 4.19527V9.30527C5.09961 9.3964 5.17348 9.47027 5.26461 9.47027H8.23461C8.32574 9.47027 8.39961 9.3964 8.39961 9.30527V4.19527C8.39961 4.10415 8.32574 4.03027 8.23461 4.03027Z" fill="#1CA74E"/>
</g>
<defs>
<clipPath id="clip0_2086_22516">
<rect width="28" height="28" fill="white"/>
</clipPath>
</defs>
</svg>
