<svg width="24" height="25" viewBox="0 0 24 25" fill="none" xmlns="http://www.w3.org/2000/svg">
<g clip-path="url(#clip0_3101_8243)">
<path d="M19.4083 7.51579L15.446 6.94002L13.674 3.34959C12.9896 1.9627 11.0105 1.96312 10.3263 3.34954L8.55426 6.93998L4.59197 7.51579C3.06136 7.73816 2.45039 9.62043 3.55748 10.6997L6.42464 13.4945L5.74781 17.4406C5.48639 18.9651 7.08759 20.1277 8.4562 19.4084L12.0002 17.5452L15.5442 19.4084C16.9109 20.1269 18.514 18.9648 18.2526 17.4406L17.5758 13.4944L20.443 10.6996C21.5503 9.62001 20.9383 7.73812 19.4083 7.51579ZM19.326 9.55396L16.1577 12.6423C15.9691 12.8261 15.8831 13.0909 15.9276 13.3504L16.6755 17.7112C16.7131 17.9302 16.4852 18.0956 16.2886 17.9923L12.3724 15.9334C12.1394 15.8109 11.8609 15.8109 11.6279 15.9334L7.71159 17.9923C7.5149 18.0957 7.28714 17.9301 7.32469 17.7112L8.07262 13.3504C8.11711 13.0909 8.03109 12.8261 7.84256 12.6423L4.67423 9.55396C4.51509 9.39885 4.60214 9.1311 4.82203 9.09909L9.20053 8.46285C9.46106 8.42498 9.68634 8.26138 9.80287 8.02527L11.761 4.05763C11.8593 3.85851 12.1409 3.85837 12.2392 4.05768L14.1974 8.02527C14.3139 8.26138 14.5392 8.42502 14.7997 8.46285L19.1782 9.09909C19.3981 9.1311 19.4851 9.3989 19.326 9.55396Z" fill="#1CA74E"/>
<path d="M6.3161 2.71013L5.35933 1.39327C5.09955 1.03589 4.5993 0.956581 4.24192 1.21636C3.8845 1.47605 3.80524 1.97635 4.06497 2.33377L5.02174 3.65058C5.28161 4.00814 5.78186 4.08713 6.13914 3.82749C6.49657 3.56785 6.57583 3.06755 6.3161 2.71013Z" fill="#1CA74E"/>
<path d="M3.14052 14.511C3.00406 14.0909 2.55275 13.8607 2.13247 13.9974L0.552969 14.5107C0.132781 14.6472 -0.0971407 15.0985 0.0393593 15.5187C0.176094 15.9396 0.628156 16.1687 1.04741 16.0323L2.62691 15.5191C3.04714 15.3825 3.27706 14.9312 3.14052 14.511Z" fill="#1CA74E"/>
<path d="M19.7583 1.21633C19.4009 0.956647 18.9006 1.03582 18.6409 1.39324L17.6841 2.71005C17.4244 3.06748 17.5036 3.56782 17.8611 3.82746C18.2186 4.08724 18.7189 4.00784 18.9785 3.65055L19.9352 2.33374C20.1949 1.97632 20.1157 1.47598 19.7583 1.21633Z" fill="#1CA74E"/>
<path d="M23.4472 14.5107L21.8677 13.9975C21.4476 13.8607 20.9962 14.0909 20.8597 14.5111C20.7231 14.9313 20.9531 15.3826 21.3733 15.5191L22.9528 16.0324C23.3721 16.1687 23.8241 15.9396 23.9608 15.5188C24.0974 15.0986 23.8674 14.6473 23.4472 14.5107Z" fill="#1CA74E"/>
<path d="M11.9992 20.7129C11.5574 20.7129 11.1992 21.0711 11.1992 21.5129V23.1365C11.1992 23.5783 11.5574 23.9365 11.9992 23.9365C12.441 23.9365 12.7992 23.5783 12.7992 23.1365V21.5129C12.7992 21.071 12.441 20.7129 11.9992 20.7129Z" fill="#1CA74E"/>
</g>
<defs>
<clipPath id="clip0_3101_8243">
<rect width="24" height="24" fill="white" transform="translate(0 0.5)"/>
</clipPath>
</defs>
</svg>
