<svg width="21" height="28" viewBox="0 0 21 28" fill="none" xmlns="http://www.w3.org/2000/svg">
<g clip-path="url(#clip0_2086_22523)">
<path d="M5.83008 5.79H6.60008L6.21008 4.75L5.83008 5.79Z" fill="#1CA74E"/>
<path d="M20.02 5.79C19.76 5.79 17.49 5.79 17.16 5.79C15.85 5.79 14.78 4.71 14.78 3.38C14.79 2.69 14.78 0.66 14.78 0H2.88C1.57 0 0.5 1.08 0.5 2.41V25.58C0.5 26.92 1.57 28 2.88 28H18.12C19.43 28 20.5 26.92 20.5 25.59V5.79H20.02ZM10.5 3.86C11.12 3.86 11.12 4.83 10.5 4.83H10.02C10.03 5.22 10.08 5.78 9.54 5.8C9 5.79 9.05 5.22 9.06 4.83C8.67 4.84 8.12 4.89 8.11 4.35C8.12 3.81 8.67 3.86 9.06 3.87C9.05 3.48 9 2.92 9.54 2.9C10.08 2.91 10.03 3.48 10.02 3.87L10.5 3.86ZM7.81 7.7C7.22 7.9 7.11 7.15 6.95 6.76H5.46C5.31 7.14 5.2 7.89 4.6 7.7C4.38 7.6 4.24 7.32 4.34 7.07L5.77 3.21C5.91 2.83 6.52 2.83 6.67 3.21L8.1 7.07C8.19 7.32 8.05 7.6 7.81 7.7ZM16.21 19.31H4.79C4.17 19.31 4.16 18.34 4.79 18.34H16.22C16.83 18.34 16.84 19.31 16.21 19.31ZM16.69 22.69C16.69 22.96 16.48 23.17 16.21 23.17H4.79C4.52 23.17 4.31 22.96 4.31 22.69C4.31 22.42 4.52 22.21 4.79 22.21H16.22C16.48 22.21 16.69 22.42 16.69 22.69ZM16.21 15.45H4.79C4.17 15.45 4.16 14.48 4.79 14.48H16.22C16.83 14.48 16.84 15.45 16.21 15.45ZM16.21 10.62C16.83 10.62 16.84 11.59 16.21 11.59H4.78C4.16 11.59 4.15 10.62 4.78 10.62H16.21Z" fill="#1CA74E"/>
<path d="M17.1702 4.83004H20.2202L15.7402 0.290039V3.38004C15.7402 4.18004 16.3802 4.83004 17.1702 4.83004Z" fill="#1CA74E"/>
</g>
<defs>
<clipPath id="clip0_2086_22523">
<rect width="20" height="28" fill="white" transform="translate(0.5)"/>
</clipPath>
</defs>
</svg>
