<svg width="25" height="24" viewBox="0 0 25 24" fill="none" xmlns="http://www.w3.org/2000/svg">
<g clip-path="url(#clip0_3822_15098)">
<path d="M20.9652 10.9745V4.9215C20.9652 3.48289 19.7871 2.29467 18.3484 2.29467H18.0225V1.88435C18.0225 0.857919 17.1904 0.0258129 16.1639 0.0258129C15.1375 0.0258129 14.3054 0.857919 14.3054 1.88435V2.29467H7.49079V1.88435C7.49079 0.84367 6.64712 0 5.60645 0C4.56577 0 3.7221 0.84367 3.7221 1.88435V2.29467H3.44049C2.00183 2.29467 0.831055 3.48289 0.831055 4.9215V18.8204C0.831055 20.2591 2.00183 21.4479 3.44049 21.4479H11.628C12.9779 23.0625 14.9731 23.9969 17.0777 24C20.9858 24 24.1693 20.8159 24.1693 16.9077C24.1694 14.4306 22.8753 12.2421 20.9652 10.9745ZM15.3379 1.88435C15.33 1.43468 15.688 1.0637 16.1377 1.05575C16.1449 1.05565 16.1521 1.05559 16.1594 1.05565C16.6132 1.05085 16.9852 1.41491 16.99 1.86886C16.99 1.87402 16.99 1.87918 16.99 1.88435V3.89507H15.3379V1.88435ZM4.75462 1.88435C4.75953 1.42173 5.13856 1.05069 5.60118 1.05559C5.60201 1.05559 5.60278 1.05559 5.60356 1.05565C6.06788 1.05565 6.45828 1.42007 6.45828 1.88435V3.89507H4.75462V1.88435ZM1.86357 4.9215C1.86357 4.05217 2.57116 3.32719 3.44049 3.32719H3.7221V4.43281C3.7221 4.71788 3.9602 4.92759 4.24533 4.92759H6.96189C7.24697 4.92759 7.49079 4.71788 7.49079 4.43281V3.32719H14.3054V4.43281C14.2978 4.69842 14.5069 4.91995 14.7725 4.92759C14.782 4.92785 14.7915 4.92785 14.801 4.92759H17.5176C17.7873 4.93657 18.0133 4.72516 18.0223 4.45542C18.0225 4.44788 18.0226 4.44034 18.0225 4.43281V3.32719H18.3484C19.2236 3.33601 19.9293 4.04628 19.9326 4.9215V6.57962H1.86357V4.9215ZM3.44049 20.4154C2.57116 20.4154 1.86357 19.6898 1.86357 18.8204V7.61213H19.9326V10.413C19.034 10.0185 18.0631 9.81496 17.0816 9.81532C13.1736 9.81532 9.99202 13.0041 9.99202 16.9123C9.99006 18.1401 10.3074 19.3473 10.913 20.4154H3.44049ZM17.0777 22.9583C13.7335 22.9583 11.0225 20.2473 11.0225 16.903C11.0225 13.5588 13.7335 10.8478 17.0777 10.8478C20.4219 10.8478 23.133 13.5588 23.133 16.903V16.9031C23.1292 20.2457 20.4204 22.9545 17.0777 22.9583Z" fill="#A2A2A2"/>
<path d="M19.5101 16.9048H17.2483V13.7985C17.2483 13.5134 17.0172 13.2822 16.7321 13.2822C16.4469 13.2822 16.2158 13.5134 16.2158 13.7985V17.4206C16.2204 17.7076 16.4546 17.9378 16.7418 17.9373H19.5101C19.7952 17.9373 20.0263 17.7062 20.0263 17.4211C20.0263 17.1359 19.7952 16.9048 19.5101 16.9048Z" fill="#A2A2A2"/>
</g>
<defs>
<clipPath id="clip0_3822_15098">
<rect width="24" height="24" fill="white" transform="translate(0.5)"/>
</clipPath>
</defs>
</svg>
