<svg width="120" height="132" viewBox="0 0 120 132" fill="none" xmlns="http://www.w3.org/2000/svg">
<g opacity="0.5" clip-path="url(#clip0_7846_30216)">
<path d="M15.9852 86.6424C22.4492 84.7892 26.0324 77.5072 23.9884 70.3777C21.9445 63.2482 15.0473 58.9709 8.58319 60.8241C2.11909 62.6774 -1.46411 69.9593 0.579891 77.0888C2.62389 84.2183 9.52106 88.4956 15.9852 86.6424Z" fill="#455A64"/>
<path d="M21.2633 90.9662C26.9552 88.969 28.8621 79.6344 25.5224 70.1167C22.1828 60.5991 14.8613 54.5027 9.16939 56.4999C3.47748 58.4971 1.57059 67.8318 4.91023 77.3494C8.24986 86.867 15.5714 92.9635 21.2633 90.9662Z" fill="#F7A7A9"/>
<path d="M47.7423 84.1408C54.386 81.8096 56.8043 71.4629 53.1438 61.0309C49.4833 50.5988 41.1301 44.0318 34.4865 46.363C27.8428 48.6942 25.4245 59.0408 29.085 69.4729C32.7455 79.9049 41.0986 86.472 47.7423 84.1408Z" fill="#F7A7A9"/>
<path d="M45.085 114.7C40.573 105.425 42.0054 90.6351 42.0054 90.6351C42.0054 90.6351 41.6473 87.9135 42.0054 86.8034C42.3635 85.6933 47.7708 84.1535 47.7708 84.1535L34.9507 46.2305L8.12891 56.9735L16.6875 90.9932C16.6875 90.9932 18.0483 104.207 18.9794 110.187C19.9105 116.168 21.2354 124.619 22.453 127.806C23.6705 130.993 29.2927 131.351 32.3008 131.745C35.3089 132.103 46.6249 126.589 47.8066 124.905C48.9167 123.222 49.5971 123.939 45.085 114.7Z" fill="#F7A7A9"/>
<path opacity="0.3" d="M47.7423 84.1408C54.386 81.8096 56.8043 71.4629 53.1438 61.0309C49.4833 50.5988 41.1301 44.0318 34.4865 46.363C27.8428 48.6942 25.4245 59.0408 29.085 69.4729C32.7455 79.9049 41.0986 86.472 47.7423 84.1408Z" fill="black"/>
<path d="M34.3086 48.7015C34.3086 48.7015 47.5226 40.8949 54.3265 33.1241C59.8771 26.7857 67.4688 16.1143 67.4688 16.1143L102.527 89.7042C102.527 89.7042 84.2996 82.7212 67.4688 82.578C51.4259 82.4348 45.4098 82.5422 45.4098 82.5422L34.3086 48.7015Z" fill="#E0E0E0"/>
<path d="M47.3203 82.1344C52.527 80.3075 54.0777 71.2167 50.7839 61.8298C47.4901 52.4428 40.5991 46.3142 35.3924 48.1412C30.1857 49.9682 28.635 59.0589 31.9288 68.4458C35.2226 77.8328 42.1136 83.9614 47.3203 82.1344Z" fill="#E0E0E0"/>
<g opacity="0.3">
<path d="M33.3394 71.8706C45.7298 64.3863 59.087 58.406 73.9482 60.2323C70.2598 51.7095 68.0037 42.5779 67.3233 33.3389C57.9052 46.1947 45.8014 57.9763 30.3672 61.9154C30.3672 61.9154 30.976 65.8187 31.6205 67.6092C32.2293 69.3281 33.3394 71.8706 33.3394 71.8706Z" fill="white"/>
</g>
<path opacity="0.2" d="M24.459 127.054C24.638 126.946 24.8171 126.875 24.9961 126.767C25.2468 126.66 25.4617 126.517 25.7123 126.409C25.8914 126.302 26.1062 126.23 26.2853 126.123C26.536 126.015 26.7508 125.908 27.0015 125.8C27.1805 125.729 27.3954 125.621 27.5745 125.55C27.8251 125.442 28.04 125.335 28.2907 125.228C28.4697 125.156 28.6488 125.048 28.8278 124.977C29.0785 124.869 29.365 124.762 29.6156 124.619C29.7947 124.547 29.9379 124.475 30.117 124.404C30.5467 124.225 30.9406 124.046 31.3703 123.903C31.5136 123.867 31.621 123.795 31.7642 123.759C32.0865 123.652 32.373 123.509 32.6953 123.401C32.8744 123.33 33.0534 123.258 33.2325 123.186C33.4831 123.079 33.7338 123.007 33.9845 122.9C34.1635 122.828 34.3784 122.757 34.5574 122.685C34.8081 122.613 35.023 122.506 35.2737 122.434C35.4527 122.363 35.6676 122.291 35.8466 122.219C36.0973 122.148 36.3121 122.04 36.5628 121.969C36.7419 121.897 36.9567 121.826 37.1358 121.79C37.3865 121.718 37.6013 121.646 37.852 121.539C38.031 121.467 38.2101 121.432 38.4249 121.36C38.6756 121.288 38.9263 121.217 39.177 121.109C39.356 121.074 39.4993 121.002 39.6783 120.966C40.0722 120.859 40.5019 120.715 40.8959 120.608C40.5736 119.82 37.9236 114.341 34.9872 106.212C31.8001 97.4388 33.8054 85.0843 33.0892 84.4755C32.373 83.9025 16.6523 90.9571 16.6523 90.9571C16.6523 90.9571 18.0131 104.171 18.9442 110.151C19.8753 116.132 21.2002 124.583 22.4178 127.77C22.4536 127.877 22.4894 127.985 22.561 128.057C22.7759 127.913 23.0266 127.806 23.2414 127.663C23.4205 127.555 23.5637 127.484 23.7428 127.376C23.9934 127.304 24.2083 127.161 24.459 127.054Z" fill="#F5F5F5"/>
<g opacity="0.3">
<path d="M40.8973 120.644C40.4676 120.751 40.0737 120.895 39.6798 121.002C39.5007 121.038 39.3575 121.109 39.1784 121.145C38.9278 121.217 38.6771 121.288 38.4264 121.396C38.2474 121.467 38.0683 121.503 37.8535 121.575C37.6028 121.647 37.3879 121.718 37.1373 121.826C36.9582 121.897 36.7433 121.969 36.5643 122.005C36.3136 122.076 36.0988 122.148 35.8481 122.255C35.669 122.327 35.4542 122.399 35.2751 122.47C35.0245 122.542 34.8096 122.649 34.5589 122.721C34.3799 122.792 34.165 122.864 33.986 122.936C33.7353 123.043 33.4846 123.115 33.2339 123.222C33.0549 123.294 32.8758 123.365 32.6968 123.437C32.3745 123.544 32.088 123.688 31.7657 123.795C31.6225 123.831 31.5151 123.903 31.3718 123.938C30.9421 124.117 30.5482 124.261 30.1185 124.44C29.9394 124.511 29.7962 124.583 29.6171 124.655C29.3664 124.762 29.08 124.869 28.8293 125.013C28.6502 125.084 28.4712 125.192 28.2921 125.263C28.0415 125.371 27.7908 125.478 27.5759 125.586C27.3969 125.657 27.182 125.765 27.003 125.836C26.7523 125.944 26.5374 126.051 26.2868 126.159C26.1077 126.266 25.8929 126.338 25.7138 126.445C25.4631 126.553 25.2483 126.696 24.9976 126.803C24.8185 126.911 24.6395 126.982 24.4604 127.09C24.2098 127.233 23.9591 127.34 23.7442 127.484C23.5652 127.591 23.4219 127.663 23.2429 127.77C23.028 127.878 22.7774 128.021 22.5625 128.164C23.9949 131.065 29.3664 131.423 32.2671 131.817C35.2751 132.175 46.5911 126.66 47.7729 124.977C48.3817 124.082 48.883 123.867 48.4891 122.434C45.9824 121.754 43.7263 121.217 40.8973 120.644C40.9331 120.644 40.9331 120.608 40.8973 120.644Z" fill="black"/>
</g>
<path d="M37.1002 87.6992C37.1002 87.6992 36.0259 87.8066 35.7394 88.0931C35.4529 88.3796 35.059 101.952 36.4198 104.172C36.4914 104.315 36.3124 104.279 37.1002 104.745C37.888 105.21 41.4332 106.75 42.5433 106.034C43.6535 105.318 46.2318 103.026 46.0527 102.059C45.8737 101.092 44.871 100.376 43.7251 98.12C42.6866 96.1146 42.2927 89.7046 42.2927 89.7046C41.8988 89.5613 37.6731 87.6276 37.1002 87.6992Z" fill="#F5F5F5"/>
<path opacity="0.3" d="M46.0541 102.095V102.059C45.875 101.092 44.8724 100.376 43.7264 98.12C42.6879 96.1146 42.294 89.7046 42.294 89.7046C41.9359 89.5255 38.3907 87.9141 37.3164 87.6992C37.3522 88.0573 38.14 92.2113 38.8204 95.291C39.4292 98.0484 40.7184 99.9821 41.0407 100.448C41.1123 100.412 41.1481 100.376 41.1839 100.376C41.4346 100.448 44.6933 101.307 46.0541 102.095Z" fill="black"/>
<path opacity="0.5" d="M41.1833 100.412C41.1475 100.412 41.1117 100.448 41.0401 100.484C40.3239 100.949 37.459 103.778 36.707 104.53C36.7787 104.602 36.9219 104.674 37.0651 104.781C37.853 105.246 41.3982 106.786 42.5083 106.07C43.4393 105.461 45.4805 103.671 45.9461 102.561C46.0177 102.382 46.0535 102.238 46.0177 102.131C44.6927 101.307 41.434 100.448 41.1833 100.412Z" fill="black"/>
<path d="M47.5215 122.327C47.5215 122.327 47.4498 122.327 47.2708 122.327C47.0917 122.327 46.8411 122.291 46.5546 122.22C45.91 122.112 45.0147 121.861 43.9404 121.539C43.4033 121.396 42.7945 121.217 42.1499 121.074C41.5053 120.93 40.7891 120.859 40.0371 121.002C38.5689 121.253 37.0649 122.005 35.3818 122.542C32.0873 123.688 29.1866 124.941 27.1454 125.98C26.107 126.481 25.3191 126.911 24.7462 127.233C24.4955 127.376 24.2806 127.484 24.1016 127.591C23.9583 127.663 23.8867 127.698 23.8867 127.698C23.8867 127.698 23.9583 127.627 24.1016 127.555C24.2448 127.484 24.4597 127.34 24.7462 127.161C25.2833 126.839 26.107 126.374 27.1096 125.872C29.1508 124.834 32.0156 123.544 35.346 122.399C36.9933 121.861 38.4973 121.109 40.0013 120.859C40.3952 120.787 40.7533 120.787 41.1114 120.787C41.4695 120.823 41.8276 120.859 42.1499 120.93C42.7945 121.074 43.4033 121.253 43.9762 121.396C45.0506 121.754 45.9458 122.005 46.5546 122.148C46.8769 122.22 47.0917 122.255 47.2708 122.291C47.4498 122.327 47.5215 122.327 47.5215 122.327Z" fill="#263238"/>
<path d="M41.2529 100.447C41.2529 100.483 41.0023 100.698 40.6083 101.056C40.1786 101.414 39.6057 101.915 38.9969 102.453C38.3881 103.026 37.851 103.527 37.457 103.921C37.0631 104.315 36.8125 104.53 36.8125 104.53C36.7766 104.53 36.9915 104.243 37.3854 103.849C37.7435 103.455 38.2807 102.918 38.9253 102.345C39.534 101.772 40.1428 101.307 40.5725 100.984C40.9306 100.626 41.2171 100.411 41.2529 100.447Z" fill="#263238"/>
<path d="M40.4646 99.5523C40.4646 99.5523 40.3572 99.4449 40.2139 99.1942C40.0707 98.9435 39.8558 98.5854 39.641 98.1199C39.2112 97.1888 38.8531 95.828 38.5308 94.2882C38.2085 92.7842 37.9579 91.3876 37.8146 90.3849C37.743 89.8836 37.7072 89.4538 37.6714 89.2032C37.6356 88.9167 37.6356 88.7734 37.6714 88.7734C37.6714 88.7734 37.7072 88.9167 37.743 89.2032C37.7788 89.5255 37.8504 89.9194 37.9221 90.3849C38.1011 91.3876 38.3518 92.7484 38.6741 94.2882C38.9964 95.7922 39.3187 97.153 39.7126 98.1199C40.1423 99.0152 40.4646 99.5165 40.4646 99.5523Z" fill="#263238"/>
<path d="M45.7321 101.952C45.6963 101.987 44.7295 101.522 43.4761 101.128C42.2227 100.698 41.1484 100.483 41.1484 100.448C41.1484 100.412 41.4349 100.448 41.8646 100.519C42.2944 100.591 42.9031 100.734 43.5477 100.949C44.1923 101.164 44.7295 101.415 45.1234 101.594C45.5173 101.773 45.7321 101.916 45.7321 101.952Z" fill="#263238"/>
<g opacity="0.3">
<path d="M25.75 59.9102C25.3202 62.1304 25.4993 64.4222 26.2871 66.535C26.2871 66.535 12.7151 70.8323 6.2334 73.7329C5.19491 71.9782 4.76519 69.9012 5.05167 67.86L25.75 59.9102Z" fill="white"/>
</g>
<path d="M34.5222 46.374C34.5222 46.374 34.4864 46.4098 34.4147 46.4456C34.3073 46.4815 34.1999 46.5173 34.0566 46.5889C33.7344 46.7321 33.2688 46.947 32.7317 47.3051C31.6574 48.0213 30.225 49.3821 29.2223 51.5307C28.1838 53.6435 27.5392 56.4367 27.5392 59.5164C27.5034 62.6319 28.0763 66.0338 29.2581 69.4358C30.4398 72.802 32.1587 75.8458 34.1283 78.2451C36.0978 80.6444 38.3181 82.4349 40.4667 83.4376C42.5795 84.4761 44.549 84.6551 45.8382 84.5477C46.4828 84.4761 46.9841 84.3686 47.3422 84.297C47.4855 84.2612 47.6287 84.2254 47.7361 84.1896C47.8078 84.1538 47.8794 84.1538 47.8794 84.1538C47.8794 84.1538 47.8436 84.1896 47.7361 84.1896C47.6287 84.2254 47.5213 84.2612 47.378 84.297C47.0557 84.4045 46.5544 84.5119 45.874 84.5835C44.5848 84.7267 42.5795 84.5477 40.4309 83.545C38.2822 82.5423 36.0262 80.7876 34.0208 78.3525C32.0155 75.9533 30.3324 72.9094 29.1148 69.5074C27.9331 66.1054 27.3601 62.6677 27.4318 59.5522C27.4676 56.4367 28.148 53.6077 29.1865 51.4949C30.225 49.3463 31.6574 47.9855 32.7675 47.2693C33.3404 46.9112 33.806 46.6963 34.1283 46.5531C34.2715 46.4815 34.4147 46.4456 34.4864 46.4098C34.4506 46.374 34.5222 46.374 34.5222 46.374Z" fill="#263238"/>
<path d="M42.1127 86.911C42.1127 86.911 41.9694 86.911 41.7546 86.911C41.5397 86.911 41.2174 86.8752 40.8235 86.8036C40.0357 86.6961 38.9256 86.5171 37.7438 86.1948C36.5621 85.8725 35.5236 85.5144 34.7716 85.1921C34.4135 85.0489 34.0912 84.9056 33.9121 84.7982C33.6973 84.6908 33.5898 84.655 33.5898 84.6192C33.5898 84.5833 34.0554 84.7982 34.8074 85.0489C35.5594 85.3354 36.5979 85.6935 37.7796 85.9799C38.9614 86.3022 40.0357 86.5171 40.8235 86.6245C41.6113 86.8394 42.1127 86.8752 42.1127 86.911Z" fill="#263238"/>
<path d="M32.1226 84.4401C32.1584 84.4759 28.6848 85.9799 24.4234 87.8063C20.162 89.6326 16.6526 91.065 16.6526 90.9934C16.6168 90.9576 20.0904 89.4535 24.3518 87.6272C28.6132 85.8367 32.1226 84.4043 32.1226 84.4401Z" fill="#263238"/>
<path d="M67.4656 16.1143C67.4656 16.1143 67.4298 16.1501 67.394 16.2217C67.3582 16.2933 67.2865 16.4007 67.1791 16.5082C67.0001 16.7588 66.7136 17.1528 66.3913 17.6183C65.7109 18.5852 64.7082 19.9818 63.419 21.6648C62.1657 23.3837 60.6258 25.3891 58.907 27.6093C58.0475 28.7194 57.1164 29.8654 56.1496 31.0471C55.6482 31.6201 55.1469 32.2288 54.6455 32.8376C54.1442 33.4464 53.5712 34.0194 53.0341 34.6281C50.7422 36.9558 48.3788 38.9254 46.1585 40.6442C43.9383 42.3631 41.8613 43.8314 40.1066 45.0131C38.3519 46.1948 36.8837 47.1259 35.881 47.7347C35.3796 48.057 34.9857 48.2718 34.6993 48.4509C34.556 48.5225 34.4844 48.5941 34.377 48.6299C34.4486 48.5941 34.556 48.5225 34.6634 48.4509C34.9499 48.2718 35.308 48.0212 35.8094 47.6989C36.8121 47.0543 38.2445 46.1232 39.9992 44.9057C41.7539 43.6881 43.795 42.2199 46.0153 40.501C48.2355 38.7821 50.599 36.7767 52.855 34.4849C53.3922 33.8761 53.9651 33.3032 54.4665 32.7302C54.9678 32.1214 55.505 31.5485 55.9705 30.9397C56.9374 29.7579 57.8685 28.612 58.7279 27.5377C60.4826 25.3533 62.0224 23.3121 63.2758 21.629C64.5292 19.946 65.5677 18.5494 66.2839 17.6183C66.642 17.1528 66.8926 16.7947 67.1075 16.5082C67.2149 16.4007 67.2507 16.2933 67.3224 16.2217C67.4656 16.1501 67.4656 16.1143 67.4656 16.1143Z" fill="#263238"/>
<path d="M45.4102 82.5426C45.4102 82.5426 45.446 82.5426 45.5176 82.5426C45.5892 82.5426 45.6966 82.5426 45.8399 82.5426C46.1264 82.5426 46.5561 82.5426 47.0932 82.5426C48.1675 82.5426 49.7432 82.5426 51.6769 82.5068C55.5444 82.5068 60.8802 82.5068 66.753 82.5068C72.6617 82.5068 77.9616 83.2947 81.7575 84.0109C83.6555 84.369 85.1953 84.6913 86.2338 84.9419C86.7709 85.0494 87.1649 85.1568 87.4513 85.2284C87.5946 85.2642 87.6662 85.3 87.7736 85.3C87.8452 85.3358 87.8811 85.3358 87.8811 85.3358C87.8811 85.3358 87.8452 85.3358 87.7736 85.3358C87.702 85.3358 87.5946 85.3 87.4513 85.2642C87.1649 85.1926 86.7709 85.121 86.2338 85.0136C85.1953 84.7987 83.6555 84.4764 81.7575 84.1183C77.9616 83.4379 72.6617 82.6859 66.7888 82.6859C60.916 82.6501 55.5803 82.6501 51.7127 82.6143C49.779 82.6143 48.2392 82.5785 47.129 82.5785C46.5919 82.5785 46.198 82.5785 45.8757 82.5426C45.7324 82.5426 45.625 82.5426 45.5534 82.5426C45.446 82.5426 45.4102 82.5426 45.4102 82.5426Z" fill="#263238"/>
<path opacity="0.3" d="M113.662 40.3219L66.8585 16.8662L64.0295 20.8411C62.7761 30.4741 64.0653 42.6854 68.1835 55.2189C72.1584 67.3228 78.0671 77.6003 84.5129 84.6191L93.8594 86.8752L113.662 40.3219Z" fill="black"/>
<path d="M107.815 93.1578C120.369 89.0411 123.751 64.9852 115.37 39.4274C106.989 13.8696 90.0177 -3.51191 77.4643 0.60474C64.9109 4.72139 61.5287 28.7773 69.9099 54.3351C78.2911 79.8929 95.2619 97.2744 107.815 93.1578Z" fill="#F7A7A9"/>
<path d="M105.853 85.1317C114.254 82.377 115.468 63.0814 108.566 42.0338C101.664 20.9862 89.2587 6.15688 80.8584 8.91158C72.4582 11.6663 71.2437 30.9619 78.1459 52.0095C85.0481 73.0571 97.4531 87.8864 105.853 85.1317Z" fill="#E0E0E0"/>
<path opacity="0.3" d="M112.728 41.1818C105.602 19.5166 92.3519 4.4405 83.0771 7.48436C82.0028 7.84247 81.0359 8.41543 80.1406 9.20325C80.3913 9.09582 80.6062 8.98839 80.8568 8.91677C89.2722 6.15939 101.663 20.9848 108.574 42.0412C115.485 63.0976 114.268 82.3635 105.852 85.1209C104.599 85.5506 103.238 85.5506 101.842 85.1925C104.277 86.3026 106.64 86.5533 108.789 85.8371C118.064 82.829 119.818 62.8111 112.728 41.1818Z" fill="black"/>
<path d="M75.668 43.975L97.548 39.248L101.523 51.3519L81.6483 61.8801C81.6483 61.8801 76.0261 49.454 75.668 43.975Z" fill="#F7A7A9"/>
<path opacity="0.2" d="M81.7525 42.6504C81.3944 42.7936 77.3478 49.9199 80.141 54.0022C82.9342 58.0846 85.9422 59.5886 85.9422 59.5886L81.8957 61.773L77.6701 50.5644L75.6289 43.9754L81.7525 42.6504Z" fill="black"/>
<path d="M102.595 44.2973C103.705 47.6277 103.204 50.8148 101.521 51.3519C99.8375 51.8891 97.5815 49.633 96.4714 46.3027C95.3612 42.9723 95.8626 39.7852 97.5457 39.2481C99.2287 38.6751 101.485 40.9312 102.595 44.2973Z" fill="#F7A7A9"/>
<path d="M102.595 44.2973C102.595 44.2973 102.559 44.1899 102.487 44.0108C102.416 43.8318 102.308 43.5453 102.129 43.1872C101.95 42.8291 101.771 42.3994 101.449 41.9339C101.162 41.4683 100.804 40.9312 100.303 40.4298C99.8375 39.9285 99.1929 39.4271 98.4051 39.2839C98.0112 39.2123 97.5815 39.2481 97.2234 39.463C96.8653 39.6778 96.5788 40.0359 96.3997 40.4298C96.0058 41.2535 95.9342 42.2203 95.97 43.223C96.0058 44.2257 96.2207 45.2284 96.543 46.2669C96.8653 47.2696 97.3308 48.2006 97.8679 49.0601C98.4409 49.8837 99.0855 50.5999 99.8733 51.0655C100.267 51.2803 100.697 51.3877 101.127 51.3519C101.556 51.3161 101.915 51.1013 102.201 50.8148C102.738 50.206 102.953 49.454 103.025 48.7736C103.132 48.0932 103.096 47.4486 103.06 46.9115C103.025 46.3743 102.917 45.873 102.846 45.5149C102.774 45.121 102.702 44.8345 102.631 44.6554C102.595 44.4048 102.595 44.2973 102.595 44.2973C102.595 44.2973 102.631 44.4048 102.702 44.5838C102.774 44.7629 102.846 45.0852 102.953 45.4433C103.025 45.8372 103.132 46.3027 103.204 46.8399C103.275 47.4128 103.275 48.0216 103.204 48.7378C103.096 49.4182 102.917 50.2418 102.344 50.8864C102.058 51.2087 101.664 51.4594 101.198 51.4952C100.733 51.531 100.267 51.4236 99.8375 51.1729C99.0139 50.7074 98.3335 49.9553 97.7605 49.1317C97.1876 48.2723 96.7578 47.3412 96.3997 46.3027C96.0774 45.2642 95.8626 44.2257 95.8268 43.223C95.791 42.2203 95.8984 41.2177 96.2923 40.3582C96.5072 39.9285 96.7936 39.5346 97.1876 39.3197C97.5815 39.069 98.047 39.0332 98.4767 39.1049C99.3004 39.2839 99.9449 39.8211 100.41 40.3224C100.912 40.8237 101.27 41.3609 101.556 41.8622C101.843 42.3278 102.058 42.7933 102.201 43.1514C102.344 43.5095 102.452 43.796 102.523 44.0108C102.559 44.1899 102.595 44.2973 102.595 44.2973Z" fill="#263238"/>
<path opacity="0.3" d="M100.722 48.7401C101.699 48.4197 101.981 46.606 101.353 44.6892C100.724 42.7723 99.4224 41.4782 98.4452 41.7987C97.468 42.1191 97.1854 43.9328 97.8139 45.8496C98.4425 47.7665 99.7443 49.0606 100.722 48.7401Z" fill="black"/>
<path d="M80.8593 8.91699C80.8593 8.91699 80.7877 8.9528 80.6445 9.02442C80.5012 9.09604 80.2863 9.16766 79.9999 9.3109C79.4627 9.59739 78.6749 10.0987 77.8871 10.9224C76.2756 12.6054 74.8432 15.7926 74.2344 19.9107C73.9121 21.9519 73.7331 24.2438 73.7331 26.7147C73.7331 29.1498 73.9121 31.7997 74.2344 34.5213C74.879 40.0002 76.2398 45.9447 78.2094 51.9967C80.2147 58.0486 82.6498 63.635 85.3356 68.4336C86.6964 70.8328 88.093 73.0531 89.5612 75.0226C90.9936 76.9922 92.4976 78.7469 93.9658 80.2151C96.9023 83.1874 99.9462 84.8704 102.238 85.3002C103.384 85.515 104.279 85.4434 104.888 85.3718C105.174 85.336 105.425 85.2644 105.568 85.2285C105.712 85.1927 105.819 85.1927 105.819 85.1927C105.819 85.1927 105.497 85.3002 104.924 85.4434C104.315 85.5508 103.384 85.6225 102.238 85.4076C101.092 85.1927 99.7313 84.6914 98.2989 83.8319C96.8665 82.9725 95.3625 81.7908 93.8942 80.3225C92.3902 78.8543 90.8862 77.0996 89.4538 75.1301C87.9855 73.1605 86.5889 70.9403 85.2282 68.541C82.5066 63.7424 80.0715 58.156 78.0661 52.1041C76.0966 46.0522 74.7358 40.1077 74.0912 34.5929C73.7689 31.8355 73.5898 29.2214 73.5898 26.7505C73.5898 24.2796 73.7689 21.9877 74.0912 19.9465C74.4135 17.8695 74.9148 16.0432 75.5952 14.5034C76.2398 12.9635 77.0276 11.746 77.8513 10.8866C78.6749 10.0271 79.4627 9.56158 79.9999 9.27509C80.537 8.98861 80.8593 8.91699 80.8593 8.91699Z" fill="#263238"/>
<path opacity="0.2" d="M79.75 56.5797L97.7267 48.9521C97.7267 48.9521 99.1233 51.3156 100.914 51.4231L81.9344 61.7722L79.75 56.5797Z" fill="black"/>
<path opacity="0.3" d="M67.8594 26.1416C67.8594 26.1416 66.8925 30.3314 67.8594 31.9429H71.1898V26.1416H67.8594Z" fill="white"/>
<g opacity="0.3">
<path d="M82.8278 0.0712891C80.1062 0.572632 77.5995 1.79018 75.4151 3.75974C69.9003 8.41507 67.6443 16.5798 67.6801 23.706C68.7902 23.4554 70.3659 23.0973 71.3327 23.706C71.6192 20.125 71.9415 16.4724 73.2307 13.142C74.5199 9.81166 76.8833 6.69618 80.2137 5.33539C82.9353 4.22527 86.0149 4.36851 88.8439 5.19215C95.1823 7.01847 100.053 11.7812 104.421 16.7947C97.7249 7.05428 89.9182 0.859114 82.8278 0.0712891Z" fill="white"/>
</g>
<path d="M115.524 81.3962C115.452 81.5394 115.345 81.7901 115.202 82.0766C114.915 82.6853 114.414 83.509 113.662 84.44C112.91 85.3711 111.907 86.3738 110.582 87.269C109.902 87.6988 109.185 88.0927 108.398 88.415C107.61 88.7373 106.715 88.9521 105.819 89.0954C103.993 89.3102 102.238 88.8805 100.806 88.2001C99.3735 87.5555 98.1917 86.7319 97.2248 86.0157C96.2938 85.2995 95.5418 84.6549 95.0762 84.1894C94.8256 83.9745 94.6465 83.7955 94.5033 83.6522C94.36 83.5448 94.3242 83.4732 94.3242 83.4732C94.3242 83.4732 94.3958 83.509 94.5391 83.6522C94.6823 83.7597 94.8972 83.9387 95.112 84.1536C95.6134 84.5833 96.3654 85.1921 97.2965 85.9083C98.2633 86.6245 99.4093 87.4123 100.842 88.0569C102.274 88.7015 103.993 89.1312 105.783 88.9163C106.679 88.8089 107.538 88.5582 108.326 88.2717C109.114 87.9853 109.83 87.5555 110.51 87.1616C111.835 86.3022 112.838 85.2995 113.59 84.4042C114.342 83.4732 114.843 82.6853 115.166 82.0766C115.345 81.7901 115.452 81.5394 115.524 81.3962Z" fill="white"/>
<g opacity="0.3">
<path d="M87.7713 67.8247C82.2565 56.1148 78.6039 43.5096 77.0283 30.6538C76.4911 26.3923 76.2046 22.0593 76.8492 17.7979C77.2789 14.8256 78.21 11.925 79.714 9.34668C72.2297 13.25 71.3702 31.8355 77.9951 52.0324C84.9065 73.0888 97.2968 87.9143 105.712 85.1569C105.999 85.0495 106.285 84.942 106.572 84.7988C102.31 84.5839 98.2637 82.3637 95.2556 79.3198C91.9611 76.0611 89.7409 71.9429 87.7713 67.8247Z" fill="black"/>
</g>
</g>
<defs>
<clipPath id="clip0_7846_30216">
<rect width="120" height="131.746" fill="white"/>
</clipPath>
</defs>
</svg>
