<svg width="33" height="24" viewBox="0 0 33 24" fill="none" xmlns="http://www.w3.org/2000/svg">
<g clip-path="url(#clip0_2086_22501)">
<path d="M30.2171 7.25029C30.0877 6.31566 30.0695 4.70589 30.973 4.16536C30.9892 4.15545 31.0012 4.14114 31.0153 4.12884C31.754 3.90184 32.2652 3.58326 31.8639 3.15457L20.9672 0L3.32302 2.35694C3.32302 2.35694 1.30254 2.63441 1.48303 5.65043C1.58101 7.29195 2.11686 8.09812 2.58548 8.49487L1.13761 8.91411C0.735748 9.34279 1.24686 9.66146 1.98565 9.88809C1.99969 9.90076 2.01153 9.91498 2.02795 9.92489C2.9309 10.4659 2.91352 12.0755 2.78364 13.0103C-0.460193 13.8953 0.704233 14.1837 0.704233 14.1837L1.4158 14.3491C0.915287 14.7837 0.418212 15.6077 0.511324 17.1706C0.691914 20.1861 2.35151 20.3942 2.35151 20.3942L13.8978 24L31.3255 19.9442C31.3255 19.9442 32.4903 19.6553 29.2456 18.7703C29.1152 17.8369 29.097 16.2275 30.0021 15.6852C30.0187 15.6755 30.0308 15.6609 30.0443 15.6488C30.7831 15.4218 31.2938 15.1035 30.8924 14.6748L30.1349 14.4551C30.6401 14.1624 31.3989 13.3974 31.5178 11.4103C31.5999 10.0435 31.2288 9.24305 30.7992 8.77179L32.2965 8.42367C32.2965 8.42422 33.4614 8.13537 30.2171 7.25029ZM15.6399 7.21166L18.5706 6.63296L28.4747 4.67745L29.9502 4.38585C29.4787 5.21496 29.4985 6.34961 29.5765 7.07889C29.5936 7.24387 29.6133 7.39453 29.6324 7.50904L28.0173 7.89488L15.5167 10.8827L15.6399 7.21166ZM3.05085 10.1463L4.52622 10.4379L14.0377 12.3165L14.8686 12.48L17.3605 12.9721L17.4834 16.6433L4.63547 13.5721L3.36886 13.2697C3.38749 13.155 3.40716 13.0045 3.42502 12.8391C3.50256 12.1103 3.52271 10.9754 3.05085 10.1463ZM2.47766 5.50527C2.4598 4.70305 2.60859 4.12288 2.90932 3.82797C3.1007 3.63969 3.32656 3.60051 3.48146 3.60051C3.5633 3.60051 3.62222 3.61143 3.62623 3.61143L11.2287 5.99277L15.0216 7.18092L14.8972 10.8777L4.25644 8.01141L3.6949 7.86028C3.67427 7.85469 3.64629 7.85083 3.62471 7.84992C3.58087 7.84689 2.52885 7.75385 2.47766 5.50527ZM13.9253 22.3984L2.72329 19.3809C2.70256 19.3751 2.67487 19.3713 2.65328 19.3703C2.60869 19.3674 1.55619 19.2745 1.50528 17.0264C1.48714 16.2232 1.63669 15.6436 1.93685 15.3484C2.12871 15.1601 2.35466 15.1209 2.50927 15.1209C2.59131 15.1209 2.65004 15.1315 2.65433 15.1315L14.049 18.7015L13.9253 22.3984ZM28.6041 18.5991C28.6217 18.7646 28.6414 18.915 28.6605 19.0297L14.5445 22.4036L14.6679 18.7325L17.6858 18.1363L18.1315 18.2399L19.802 17.7183L27.5022 16.198L28.9783 15.9062C28.5064 16.7352 28.5259 17.8703 28.6041 18.5991ZM29.3816 13.6098C29.3559 13.6104 29.3302 13.6137 29.3061 13.621L28.2414 13.9074L18.1044 16.6384L17.9804 12.9416L21.3063 11.8994L29.3595 9.37601C29.3605 9.37555 29.7831 9.28535 30.0933 9.58842C30.3935 9.88332 30.5425 10.4635 30.5249 11.2657C30.4724 13.5136 29.4199 13.607 29.3816 13.6098Z" fill="#1CA74E"/>
</g>
<defs>
<clipPath id="clip0_2086_22501">
<rect width="32" height="24" fill="white" transform="translate(0.5)"/>
</clipPath>
</defs>
</svg>
